<svg width="112" height="36" viewBox="0 0 112 36" fill="none" xmlns="http://www.w3.org/2000/svg">
<path d="M111.351 31.8482C111.351 33.7667 109.937 35.3207 108.188 35.3207H4.70156C2.95381 35.3207 1.53516 33.7667 1.53516 31.8482V4.15622C1.53516 2.23865 2.95381 0.679199 4.70156 0.679199H108.188C109.937 0.679199 111.35 2.23865 111.35 4.15622L111.351 31.8482Z" fill="black"/>
<path d="M107.855 0.721125C109.759 0.721125 111.308 2.4165 111.308 4.5V31.5C111.308 33.5835 109.759 35.2789 107.855 35.2789H5.03115C3.12686 35.2789 1.57731 33.5835 1.57731 31.5V4.5C1.57731 2.4165 3.12686 0.721125 5.03115 0.721125H107.855ZM107.855 1.90258e-06H5.03115C2.77006 1.90258e-06 0.918213 2.02613 0.918213 4.5V31.5C0.918213 33.9739 2.77006 36 5.03115 36H107.855C110.116 36 111.968 33.9739 111.968 31.5V4.5C111.968 2.02613 110.116 1.90258e-06 107.855 1.90258e-06Z" fill="#A6A6A6"/>
<path d="M25.7011 17.8055C25.6773 14.9048 27.872 13.4936 27.9723 13.4279C26.7294 11.4452 24.8029 11.1743 24.1259 11.1527C22.5079 10.9664 20.9384 12.212 20.1141 12.212C19.2734 12.212 18.0042 11.1707 16.6362 11.2013C14.8759 11.231 13.2291 12.3461 12.3259 14.0777C10.4619 17.6084 11.852 22.7969 13.6379 25.6508C14.5312 27.0485 15.5751 28.6091 16.9414 28.5542C18.2781 28.4939 18.7774 27.6218 20.3905 27.6218C21.9888 27.6218 22.4577 28.5542 23.8511 28.5191C25.2857 28.4939 26.1889 27.1151 27.051 25.7048C28.0834 24.1028 28.4979 22.5251 28.5144 22.4441C28.4807 22.4315 25.7283 21.2822 25.7011 17.8055Z" fill="white"/>
<path d="M23.0689 9.27531C23.7878 8.29161 24.2797 6.95331 24.1432 5.59521C23.1026 5.64561 21.8012 6.38271 21.0519 7.34481C20.3889 8.19261 19.7966 9.58221 19.9496 10.889C21.1185 10.9844 22.3187 10.2437 23.0689 9.27531Z" fill="white"/>
<path d="M45.0459 28.3537H43.1778L42.1545 24.8356H38.5976L37.6229 28.3537H35.8041L39.3281 16.3765H41.5047L45.0459 28.3537ZM41.846 23.3596L40.9206 20.2321C40.8227 19.9126 40.6393 19.1602 40.3687 17.9758H40.3358C40.228 18.4852 40.0544 19.2376 39.8159 20.2321L38.9069 23.3596H41.846Z" fill="white"/>
<path d="M54.1084 23.9293C54.1084 25.3981 53.7456 26.5591 53.0201 27.4114C52.3702 28.1701 51.5633 28.549 50.6 28.549C49.5603 28.549 48.8134 28.1404 48.3585 27.3232H48.3256V31.8727H46.5718V22.5604C46.5718 21.637 46.5496 20.6893 46.5068 19.7173H48.0492L48.1471 21.0862H48.18C48.7648 20.0548 49.6524 19.54 50.8435 19.54C51.7747 19.54 52.552 19.9423 53.1739 20.7478C53.7974 21.5542 54.1084 22.6144 54.1084 23.9293ZM52.3217 23.9995C52.3217 23.1589 52.149 22.4659 51.8018 21.9205C51.4226 21.3517 50.9134 21.0673 50.2751 21.0673C49.8424 21.0673 49.4492 21.2257 49.098 21.538C48.7459 21.853 48.5156 22.2643 48.4078 22.7737C48.3535 23.0113 48.3264 23.2057 48.3264 23.3587V24.7987C48.3264 25.4269 48.5024 25.957 48.8545 26.3899C49.2066 26.8228 49.6639 27.0388 50.2266 27.0388C50.8871 27.0388 51.4012 26.7598 51.7689 26.2036C52.1375 25.6465 52.3217 24.9121 52.3217 23.9995Z" fill="white"/>
<path d="M63.1872 23.9293C63.1872 25.3981 62.8244 26.5591 62.0981 27.4114C61.4491 28.1701 60.6421 28.549 59.6789 28.549C58.6391 28.549 57.8922 28.1404 57.4381 27.3232H57.4052V31.8727H55.6515V22.5604C55.6515 21.637 55.6293 20.6893 55.5865 19.7173H57.1288L57.2267 21.0862H57.2596C57.8437 20.0548 58.7312 19.54 59.9232 19.54C60.8535 19.54 61.6309 19.9423 62.2544 20.7478C62.8754 21.5542 63.1872 22.6144 63.1872 23.9293ZM61.4005 23.9995C61.4005 23.1589 61.227 22.4659 60.8798 21.9205C60.5006 21.3517 59.9931 21.0673 59.3539 21.0673C58.9204 21.0673 58.5281 21.2257 58.176 21.538C57.8239 21.853 57.5944 22.2643 57.4867 22.7737C57.4332 23.0113 57.4052 23.2057 57.4052 23.3587V24.7987C57.4052 25.4269 57.5813 25.957 57.9317 26.3899C58.2838 26.8219 58.7411 27.0388 59.3054 27.0388C59.9659 27.0388 60.4801 26.7598 60.8478 26.2036C61.2163 25.6465 61.4005 24.9121 61.4005 23.9995Z" fill="white"/>
<path d="M73.338 24.9948C73.338 26.0136 73.0148 26.8425 72.3657 27.4824C71.6526 28.1817 70.6597 28.5309 69.3839 28.5309C68.2059 28.5309 67.2616 28.2825 66.5468 27.7848L66.9531 26.1855C67.7231 26.6949 68.5679 26.9505 69.4883 26.9505C70.1489 26.9505 70.663 26.7867 71.0323 26.4609C71.4 26.1351 71.5835 25.6977 71.5835 25.1523C71.5835 24.6663 71.4321 24.2568 71.1286 23.9247C70.8267 23.5926 70.3224 23.2839 69.6183 22.9986C67.7017 22.2165 66.7442 21.0708 66.7442 19.5642C66.7442 18.5796 67.0798 17.7723 67.7518 17.1441C68.4214 16.515 69.3148 16.2009 70.4318 16.2009C71.428 16.2009 72.2555 16.3908 72.9161 16.7697L72.4776 18.3339C71.8607 17.9667 71.1631 17.7831 70.3825 17.7831C69.7655 17.7831 69.2835 17.9496 68.938 18.2808C68.646 18.5769 68.4996 18.9378 68.4996 19.3653C68.4996 19.8387 68.6666 20.2302 69.0022 20.538C69.2942 20.8224 69.8248 21.1302 70.5947 21.4623C71.5366 21.8772 72.2284 22.3623 72.6734 22.9185C73.1168 23.4729 73.338 24.1668 73.338 24.9948Z" fill="white"/>
<path d="M79.1364 21.1571H77.2033V25.3502C77.2033 26.4167 77.5439 26.9495 78.2266 26.9495C78.5401 26.9495 78.8 26.9198 79.0056 26.8604L79.0542 28.3175C78.7087 28.4588 78.2538 28.5299 77.6903 28.5299C76.9977 28.5299 76.4564 28.2986 76.0657 27.8369C75.6766 27.3743 75.4808 26.5985 75.4808 25.5086V21.1553H74.3292V19.7153H75.4808V18.134L77.2033 17.5652V19.7153H79.1364V21.1571Z" fill="white"/>
<path d="M87.8583 23.9643C87.8583 25.2918 87.5112 26.3817 86.8186 27.234C86.0922 28.1115 85.1282 28.5489 83.9264 28.5489C82.7682 28.5489 81.846 28.1286 81.1584 27.288C80.4707 26.4474 80.1268 25.3863 80.1268 24.1074C80.1268 22.7691 80.4805 21.6729 81.1904 20.8206C81.8987 19.9674 82.8545 19.5408 84.0563 19.5408C85.2145 19.5408 86.1465 19.9611 86.8498 20.8026C87.5227 21.6189 87.8583 22.6728 87.8583 23.9643ZM86.0388 24.0264C86.0388 23.2299 85.8833 22.5468 85.5682 21.9771C85.2006 21.2877 84.6749 20.9439 83.9938 20.9439C83.2889 20.9439 82.7534 21.2886 82.3857 21.9771C82.0706 22.5477 81.9151 23.2416 81.9151 24.0624C81.9151 24.8589 82.0706 25.542 82.3857 26.1108C82.7649 26.8002 83.2946 27.144 83.9782 27.144C84.6478 27.144 85.1734 26.793 85.5526 26.0928C85.8759 25.5123 86.0388 24.822 86.0388 24.0264Z" fill="white"/>
<path d="M93.5589 21.4048C93.3853 21.3697 93.2002 21.3517 93.0061 21.3517C92.3892 21.3517 91.912 21.6064 91.5764 22.1167C91.2844 22.5667 91.138 23.1355 91.138 23.8222V28.3537H89.385L89.4015 22.4371C89.4015 21.4417 89.3793 20.5354 89.3357 19.7182H90.8632L90.9274 21.3706H90.9759C91.161 20.8027 91.453 20.3455 91.8528 20.0026C92.2436 19.6939 92.6655 19.54 93.1204 19.54C93.2825 19.54 93.4289 19.5526 93.5589 19.5751V21.4048Z" fill="white"/>
<path d="M101.402 23.6268C101.402 23.9706 101.382 24.2604 101.338 24.4971H96.0769C96.0974 25.3503 96.3516 26.0028 96.8402 26.4528C97.2836 26.8551 97.8569 27.0567 98.5611 27.0567C99.3401 27.0567 100.051 26.9208 100.69 26.6481L100.965 27.9801C100.218 28.3365 99.336 28.5138 98.3184 28.5138C97.0944 28.5138 96.1336 28.1196 95.4344 27.3321C94.7369 26.5446 94.3873 25.4871 94.3873 24.1605C94.3873 22.8582 94.7122 21.7737 95.3629 20.9088C96.044 19.9854 96.9644 19.5237 98.1226 19.5237C99.2603 19.5237 100.122 19.9854 100.706 20.9088C101.169 21.6423 101.402 22.5495 101.402 23.6268ZM99.73 23.1291C99.7415 22.5603 99.6271 22.0689 99.3894 21.654C99.0859 21.1203 98.6195 20.8539 97.9918 20.8539C97.4185 20.8539 96.9521 21.114 96.5959 21.636C96.3039 22.0509 96.1303 22.5486 96.0769 23.1282H99.73V23.1291Z" fill="white"/>
<path d="M41.2662 9.00808C41.2662 10.0674 40.9758 10.8648 40.3959 11.4003C39.8587 11.8944 39.0954 12.1419 38.1066 12.1419C37.6163 12.1419 37.1968 12.1185 36.8456 12.0717V6.28378C37.3038 6.20278 37.7973 6.16138 38.3304 6.16138C39.2722 6.16138 39.9821 6.38548 40.4609 6.83368C40.9972 7.34038 41.2662 8.06488 41.2662 9.00808ZM40.3572 9.03418C40.3572 8.34748 40.1911 7.82098 39.8587 7.45378C39.5264 7.08748 39.0411 6.90388 38.4019 6.90388C38.1305 6.90388 37.8993 6.92368 37.7077 6.96508V11.3652C37.8138 11.3832 38.0079 11.3913 38.29 11.3913C38.9498 11.3913 39.4589 11.1906 39.8176 10.7892C40.1762 10.3878 40.3572 9.80278 40.3572 9.03418Z" fill="white"/>
<path d="M46.0857 9.9331C46.0857 10.5856 45.9155 11.1202 45.5749 11.5396C45.2179 11.9707 44.7449 12.1858 44.1543 12.1858C43.5851 12.1858 43.1318 11.9797 42.7937 11.5657C42.4565 11.1526 42.2878 10.6315 42.2878 10.0033C42.2878 9.3463 42.4614 8.8072 42.8102 8.3887C43.159 7.9702 43.6278 7.7605 44.2185 7.7605C44.7877 7.7605 45.245 7.9666 45.5914 8.3797C45.9204 8.7811 46.0857 9.2995 46.0857 9.9331ZM45.1916 9.9637C45.1916 9.5722 45.1143 9.2365 44.9604 8.9566C44.7795 8.6182 44.522 8.449 44.1872 8.449C43.8409 8.449 43.5777 8.6182 43.3967 8.9566C43.242 9.2365 43.1655 9.5776 43.1655 9.9808C43.1655 10.3723 43.2429 10.708 43.3967 10.9879C43.5834 11.3263 43.8434 11.4955 44.179 11.4955C44.508 11.4955 44.7663 11.3236 44.9522 10.9789C45.1118 10.6936 45.1916 10.3552 45.1916 9.9637Z" fill="white"/>
<path d="M52.548 7.84717L51.3346 12.0898H50.545L50.0424 10.2475C49.9149 9.78757 49.8112 9.33037 49.7306 8.87677H49.715C49.6401 9.34297 49.5365 9.79927 49.4032 10.2475L48.8693 12.0898H48.0706L46.9297 7.84717H47.8156L48.2541 9.86407C48.3602 10.3411 48.4474 10.7956 48.5173 11.2258H48.5329C48.5971 10.8712 48.7032 10.4194 48.8529 9.87307L49.4032 7.84807H50.1057L50.633 9.82987C50.7605 10.3132 50.8641 10.7785 50.9439 11.2267H50.9678C51.0262 10.7902 51.1142 10.3249 51.231 9.82987L51.7015 7.84807H52.548V7.84717Z" fill="white"/>
<path d="M57.0171 12.0895H56.155V9.65951C56.155 8.91071 55.8951 8.53631 55.3736 8.53631C55.1177 8.53631 54.9113 8.63891 54.7509 8.84501C54.5921 9.05111 54.5115 9.29411 54.5115 9.57221V12.0886H53.6494V9.05921C53.6494 8.68661 53.6387 8.28251 53.6182 7.84511H54.3758L54.4161 8.50841H54.4399C54.5403 8.30231 54.69 8.13221 54.8866 7.99631C55.1202 7.83791 55.3818 7.75781 55.668 7.75781C56.03 7.75781 56.3311 7.88561 56.5704 8.14211C56.8682 8.45621 57.0171 8.92511 57.0171 9.54791V12.0895Z" fill="white"/>
<path d="M59.3943 12.0897H58.5331V5.90039H59.3943V12.0897Z" fill="white"/>
<path d="M64.4697 9.9331C64.4697 10.5856 64.2994 11.1202 63.9589 11.5396C63.6019 11.9707 63.1281 12.1858 62.5383 12.1858C61.9682 12.1858 61.515 11.9797 61.1777 11.5657C60.8404 11.1526 60.6718 10.6315 60.6718 10.0033C60.6718 9.3463 60.8454 8.8072 61.1942 8.3887C61.5429 7.9702 62.0118 7.7605 62.6016 7.7605C63.1717 7.7605 63.6282 7.9666 63.9753 8.3797C64.3044 8.7811 64.4697 9.2995 64.4697 9.9331ZM63.5747 9.9637C63.5747 9.5722 63.4974 9.2365 63.3436 8.9566C63.1634 8.6182 62.9051 8.449 62.5712 8.449C62.224 8.449 61.9608 8.6182 61.7807 8.9566C61.626 9.2365 61.5495 9.5776 61.5495 9.9808C61.5495 10.3723 61.6268 10.708 61.7807 10.9879C61.9674 11.3263 62.2273 11.4955 62.5629 11.4955C62.892 11.4955 63.1494 11.3236 63.3354 10.9789C63.4958 10.6936 63.5747 10.3552 63.5747 9.9637Z" fill="white"/>
<path d="M68.6419 12.0895H67.8679L67.8037 11.6008H67.7798C67.515 11.9905 67.1374 12.1858 66.6471 12.1858C66.2811 12.1858 65.985 12.0571 65.762 11.8015C65.5597 11.5693 65.4585 11.2804 65.4585 10.9375C65.4585 10.4191 65.6559 10.024 66.0532 9.7504C66.4497 9.4768 67.0074 9.3427 67.7255 9.349V9.2698C67.7255 8.7109 67.4574 8.4319 66.9202 8.4319C66.5377 8.4319 66.2005 8.5372 65.9093 8.746L65.7341 8.1268C66.0944 7.8829 66.5394 7.7605 67.0642 7.7605C68.0776 7.7605 68.586 8.3455 68.586 9.5155V11.0779C68.586 11.5018 68.6049 11.8393 68.6419 12.0895ZM67.7469 10.6315V9.9772C66.796 9.9592 66.3206 10.2445 66.3206 10.8322C66.3206 11.0536 66.3749 11.2192 66.4859 11.3299C66.597 11.4406 66.7384 11.4955 66.9071 11.4955C67.0963 11.4955 67.2731 11.4298 67.4344 11.2993C67.5964 11.1679 67.6959 11.0014 67.7329 10.7971C67.742 10.7512 67.7469 10.6954 67.7469 10.6315Z" fill="white"/>
<path d="M73.5404 12.0897H72.7754L72.7351 11.4084H72.7112C72.4669 11.9268 72.0507 12.186 71.4658 12.186C70.9986 12.186 70.6095 11.9853 70.301 11.5839C69.9926 11.1825 69.8387 10.6614 69.8387 10.0215C69.8387 9.33479 70.0057 8.77859 70.3413 8.35379C70.6663 7.95779 71.0644 7.75979 71.5382 7.75979C72.0589 7.75979 72.4233 7.95149 72.6306 8.33579H72.6471V5.90039H73.5099V10.9467C73.5099 11.3598 73.5198 11.7405 73.5404 12.0897ZM72.6471 10.3005V9.59309C72.6471 9.47069 72.6388 9.37169 72.6232 9.29609C72.5747 9.06929 72.4702 8.87849 72.3114 8.72459C72.151 8.57069 71.9577 8.49329 71.7348 8.49329C71.4132 8.49329 71.1615 8.63279 70.9764 8.91269C70.7929 9.19259 70.7 9.54989 70.7 9.98639C70.7 10.4058 70.788 10.746 70.9649 11.0079C71.1516 11.2869 71.4033 11.4264 71.7184 11.4264C72.0013 11.4264 72.2275 11.3103 72.3995 11.0772C72.5656 10.8621 72.6471 10.6029 72.6471 10.3005Z" fill="white"/>
<path d="M80.9133 9.9331C80.9133 10.5856 80.743 11.1202 80.4025 11.5396C80.0455 11.9707 79.5733 12.1858 78.9819 12.1858C78.4135 12.1858 77.9602 11.9797 77.6213 11.5657C77.2841 11.1526 77.1154 10.6315 77.1154 10.0033C77.1154 9.3463 77.289 8.8072 77.6378 8.3887C77.9865 7.9702 78.4554 7.7605 79.0469 7.7605C79.6153 7.7605 80.0734 7.9666 80.4189 8.3797C80.748 8.7811 80.9133 9.2995 80.9133 9.9331ZM80.02 9.9637C80.02 9.5722 79.9426 9.2365 79.7888 8.9566C79.607 8.6182 79.3504 8.449 79.0148 8.449C78.6693 8.449 78.4061 8.6182 78.2243 8.9566C78.0696 9.2365 77.9931 9.5776 77.9931 9.9808C77.9931 10.3723 78.0704 10.708 78.2243 10.9879C78.411 11.3263 78.6709 11.4955 79.0065 11.4955C79.3356 11.4955 79.5947 11.3236 79.7806 10.9789C79.9394 10.6936 80.02 10.3552 80.02 9.9637Z" fill="white"/>
<path d="M85.5486 12.0895H84.6873V9.65951C84.6873 8.91071 84.4274 8.53631 83.905 8.53631C83.6492 8.53631 83.4427 8.63891 83.2832 8.84501C83.1236 9.05111 83.0438 9.29411 83.0438 9.57221V12.0886H82.1809V9.05921C82.1809 8.68661 82.171 8.28251 82.1505 7.84511H82.9072L82.9475 8.50841H82.9714C83.0726 8.30231 83.2223 8.13221 83.4181 7.99631C83.6525 7.83791 83.9133 7.75781 84.2003 7.75781C84.5615 7.75781 84.8625 7.88561 85.1019 8.14211C85.4005 8.45621 85.5486 8.92511 85.5486 9.54791V12.0895Z" fill="white"/>
<path d="M91.3503 8.55338H90.401V10.6144C90.401 11.1382 90.5697 11.4001 90.9036 11.4001C91.0583 11.4001 91.1866 11.3857 91.2878 11.356L91.31 12.0715C91.1397 12.1417 90.916 12.1768 90.6404 12.1768C90.2998 12.1768 90.035 12.0634 89.8433 11.8366C89.6508 11.6098 89.5554 11.2282 89.5554 10.6927V8.55338H88.9886V7.84688H89.5554V7.06928L90.4002 6.79028V7.84598H91.3495V8.55338H91.3503Z" fill="white"/>
<path d="M95.914 12.0897H95.0511V9.67769C95.0511 8.91719 94.7911 8.53649 94.2704 8.53649C93.8706 8.53649 93.5975 8.75699 93.4478 9.19799C93.4223 9.29069 93.4075 9.40409 93.4075 9.53729V12.0888H92.5463V5.90039H93.4075V8.45729H93.424C93.6954 7.99199 94.0845 7.75979 94.5888 7.75979C94.9458 7.75979 95.2411 7.88759 95.4755 8.14409C95.7675 8.46359 95.914 8.93879 95.914 9.56699V12.0897Z" fill="white"/>
<path d="M100.622 9.76754C100.622 9.93674 100.61 10.0789 100.59 10.195H98.0042C98.0157 10.6144 98.1391 10.9339 98.3785 11.1553C98.5973 11.3533 98.8794 11.4523 99.2249 11.4523C99.6074 11.4523 99.9562 11.3857 100.27 11.2516L100.405 11.9068C100.038 12.0814 99.6049 12.1687 99.104 12.1687C98.5035 12.1687 98.0305 11.9752 97.6883 11.5882C97.3445 11.2012 97.1742 10.6819 97.1742 10.0303C97.1742 9.39044 97.333 8.85764 97.6529 8.43284C97.9869 7.97924 98.4385 7.75244 99.0086 7.75244C99.5663 7.75244 99.9899 7.97924 100.276 8.43284C100.507 8.79284 100.622 9.23834 100.622 9.76754ZM99.7991 9.52364C99.8057 9.24374 99.7489 9.00254 99.6321 8.79914C99.4824 8.53724 99.2545 8.40584 98.946 8.40584C98.6647 8.40584 98.4352 8.53364 98.26 8.79014C98.1169 8.99444 98.0322 9.23834 98.0042 9.52364H99.7991Z" fill="white"/>
</svg>
