<svg width="40" height="32" viewBox="0 0 40 32" fill="none" xmlns="http://www.w3.org/2000/svg">
<path fill-rule="evenodd" clip-rule="evenodd" d="M5.94255 13.2439H22.1577L20.6134 22.6098H7.48685L5.94255 13.2439Z" stroke="black" stroke-linecap="round" stroke-linejoin="round"/>
<path fill-rule="evenodd" clip-rule="evenodd" d="M9.36584 27.813C9.94058 27.813 10.4065 27.3471 10.4065 26.7724C10.4065 26.1976 9.94058 25.7317 9.36584 25.7317C8.79111 25.7317 8.3252 26.1976 8.3252 26.7724C8.3252 27.3471 8.79111 27.813 9.36584 27.813Z" stroke="black"/>
<path fill-rule="evenodd" clip-rule="evenodd" d="M18.7317 27.813C19.3064 27.813 19.7723 27.3471 19.7723 26.7724C19.7723 26.1976 19.3064 25.7317 18.7317 25.7317C18.157 25.7317 17.691 26.1976 17.691 26.7724C17.691 27.3471 18.157 27.813 18.7317 27.813Z" stroke="black"/>
<path d="M7.28455 13.2439H3.12195" stroke="black" stroke-linecap="round"/>
<path d="M29.2731 8.37109H31.6872V9.16797H29.2731V11.6523H28.4704V9.16797H26.0563V8.37109H28.4704V5.875H29.2731V8.37109ZM38.5687 6.43164C38.5687 6.81445 38.4945 7.14648 38.346 7.42773C38.1976 7.70898 37.9905 7.93945 37.7249 8.11914C37.4593 8.29492 37.1468 8.41797 36.7874 8.48828V8.53516C37.4671 8.62109 37.9769 8.83984 38.3167 9.19141C38.6605 9.54297 38.8323 10.0039 38.8323 10.5742C38.8323 11.0703 38.7152 11.5098 38.4808 11.8926C38.2503 12.2754 37.8948 12.5762 37.4144 12.7949C36.9378 13.0098 36.3265 13.1172 35.5804 13.1172C35.1273 13.1172 34.7073 13.0801 34.3206 13.0059C33.9378 12.9355 33.5706 12.8164 33.2191 12.6484V11.7344C33.5745 11.9102 33.9613 12.0488 34.3792 12.1504C34.7972 12.248 35.2015 12.2969 35.5921 12.2969C36.3734 12.2969 36.9378 12.1426 37.2855 11.834C37.6331 11.5215 37.807 11.0957 37.807 10.5566C37.807 10.1855 37.7093 9.88672 37.514 9.66016C37.3226 9.42969 37.0452 9.26172 36.682 9.15625C36.3226 9.04688 35.889 8.99219 35.3812 8.99219H34.5257V8.16016H35.387C35.8519 8.16016 36.2464 8.0918 36.5706 7.95508C36.8948 7.81836 37.1409 7.62695 37.3089 7.38086C37.4808 7.13086 37.5667 6.83594 37.5667 6.49609C37.5667 6.0625 37.4222 5.72852 37.1331 5.49414C36.8441 5.25586 36.4515 5.13672 35.9554 5.13672C35.6507 5.13672 35.3734 5.16797 35.1234 5.23047C34.8734 5.29297 34.639 5.37891 34.4202 5.48828C34.2015 5.59766 33.9827 5.72461 33.764 5.86914L33.2718 5.20117C33.5843 4.95898 33.9652 4.75 34.4144 4.57422C34.8636 4.39844 35.3734 4.31055 35.9437 4.31055C36.8187 4.31055 37.4749 4.50977 37.9124 4.9082C38.3499 5.30664 38.5687 5.81445 38.5687 6.43164Z" fill="#FF0100"/>
</svg>
