<svg width="113" height="36" viewBox="0 0 113 36" fill="none" xmlns="http://www.w3.org/2000/svg">
<path d="M107.924 36H5.10061C2.83952 36 0.987671 33.9739 0.987671 31.5V4.5C0.987671 2.02613 2.83952 1.90258e-06 5.10061 1.90258e-06H107.924C110.185 1.90258e-06 112.037 2.02613 112.037 4.5V31.5C112.037 33.9739 110.185 36 107.924 36Z" fill="black"/>
<path d="M107.924 0.721125C109.828 0.721125 111.378 2.4165 111.378 4.5V31.5C111.378 33.5835 109.828 35.2789 107.924 35.2789H5.10061C3.19632 35.2789 1.64677 33.5835 1.64677 31.5V4.5C1.64677 2.4165 3.19632 0.721125 5.10061 0.721125H107.924ZM107.924 1.90258e-06H5.10061C2.83952 1.90258e-06 0.987671 2.02613 0.987671 4.5V31.5C0.987671 33.9739 2.83952 36 5.10061 36H107.924C110.185 36 112.037 33.9739 112.037 31.5V4.5C112.037 2.02613 110.185 1.90258e-06 107.924 1.90258e-06Z" fill="#A6A6A6"/>
<path d="M39.9927 9.21934C39.9927 9.97084 39.7871 10.5727 39.3819 11.0216C38.9162 11.5537 38.3095 11.8215 37.5661 11.8215C36.8556 11.8215 36.2489 11.5492 35.7512 11.0126C35.2526 10.4681 35.0037 9.79984 35.0037 8.99997C35.0037 8.20009 35.2526 7.53184 35.7512 6.99184C36.2489 6.45072 36.8556 6.17847 37.5661 6.17847C37.9198 6.17847 38.2571 6.25834 38.5789 6.40684C38.8997 6.55647 39.1609 6.75897 39.3501 7.00872L38.9203 7.48347C38.5902 7.05709 38.1409 6.84672 37.5661 6.84672C37.0479 6.84672 36.5985 7.04472 36.217 7.44409C35.8397 7.84459 35.6505 8.36322 35.6505 8.99997C35.6505 9.63672 35.8397 10.1598 36.217 10.5603C36.5985 10.9552 37.0479 11.1577 37.5661 11.1577C38.1162 11.1577 38.5789 10.9552 38.9439 10.5558C39.1845 10.2915 39.3213 9.92697 39.3573 9.46122H37.5661V8.81097H39.9557C39.9845 8.95159 39.9927 9.08772 39.9927 9.21934Z" fill="white" stroke="white" stroke-width="0.16" stroke-miterlimit="10"/>
<path d="M43.7838 6.96487H41.5392V8.67487H43.5628V9.32512H41.5392V11.0351H43.7838V11.6977H40.9037V6.30225H43.7838V6.96487Z" fill="white" stroke="white" stroke-width="0.16" stroke-miterlimit="10"/>
<path d="M46.4593 11.6977H45.8238V6.96487H44.447V6.30225H47.8371V6.96487H46.4593V11.6977Z" fill="white" stroke="white" stroke-width="0.16" stroke-miterlimit="10"/>
<path d="M50.2905 11.6977V6.30225H50.9249V11.6977H50.2905Z" fill="white" stroke="white" stroke-width="0.16" stroke-miterlimit="10"/>
<path d="M53.7372 11.6977H53.1069V6.96487H51.7249V6.30225H55.1191V6.96487H53.7372V11.6977Z" fill="white" stroke="white" stroke-width="0.16" stroke-miterlimit="10"/>
<path d="M61.5373 11.0036C61.051 11.5492 60.4484 11.8215 59.7297 11.8215C59.0068 11.8215 58.4043 11.5492 57.9179 11.0036C57.4326 10.4591 57.191 9.79084 57.191 8.99997C57.191 8.20909 57.4326 7.54084 57.9179 6.99634C58.4043 6.45072 59.0068 6.17847 59.7297 6.17847C60.4443 6.17847 61.0469 6.45072 61.5332 7.00084C62.0227 7.54984 62.2643 8.21359 62.2643 8.99997C62.2643 9.79084 62.0227 10.4591 61.5373 11.0036ZM58.3878 10.5513C58.7539 10.9552 59.1991 11.1577 59.7297 11.1577C60.2561 11.1577 60.7055 10.9552 61.0674 10.5513C61.4325 10.1475 61.6175 9.62884 61.6175 8.99997C61.6175 8.37109 61.4325 7.85247 61.0674 7.44859C60.7055 7.04472 60.2561 6.84222 59.7297 6.84222C59.1991 6.84222 58.7539 7.04472 58.3878 7.44859C58.0228 7.85247 57.8377 8.37109 57.8377 8.99997C57.8377 9.62884 58.0228 10.1475 58.3878 10.5513Z" fill="white" stroke="white" stroke-width="0.16" stroke-miterlimit="10"/>
<path d="M63.1558 11.6977V6.30225H63.9269L66.3248 10.4985H66.3525L66.3248 9.46124V6.30225H66.9592V11.6977H66.297L63.7861 7.2945H63.7583L63.7861 8.33625V11.6977H63.1558Z" fill="white" stroke="white" stroke-width="0.16" stroke-miterlimit="10"/>
<path d="M57.0347 19.5772C55.1026 19.5772 53.5243 21.1859 53.5243 23.4056C53.5243 25.6072 55.1026 27.2328 57.0347 27.2328C58.9709 27.2328 60.5492 25.6072 60.5492 23.4056C60.5492 21.1859 58.9709 19.5772 57.0347 19.5772ZM57.0347 25.7253C55.9746 25.7253 55.0625 24.7679 55.0625 23.4056C55.0625 22.0252 55.9746 21.0847 57.0347 21.0847C58.0948 21.0847 59.011 22.0252 59.011 23.4056C59.011 24.7679 58.0948 25.7253 57.0347 25.7253ZM49.3754 19.5772C47.4392 19.5772 45.865 21.1859 45.865 23.4056C45.865 25.6072 47.4392 27.2328 49.3754 27.2328C51.3105 27.2328 52.8858 25.6072 52.8858 23.4056C52.8858 21.1859 51.3105 19.5772 49.3754 19.5772ZM49.3754 25.7253C48.3142 25.7253 47.3991 24.7679 47.3991 23.4056C47.3991 22.0252 48.3142 21.0847 49.3754 21.0847C50.4355 21.0847 51.3475 22.0252 51.3475 23.4056C51.3475 24.7679 50.4355 25.7253 49.3754 25.7253ZM40.2611 20.7506V22.3773H43.8116C43.7077 23.2863 43.4301 23.9546 43.0044 24.4203C42.4862 24.9828 41.679 25.6072 40.2611 25.6072C38.0761 25.6072 36.3651 23.6778 36.3651 21.2872C36.3651 18.8966 38.0761 16.9672 40.2611 16.9672C41.4425 16.9672 42.3021 17.4723 42.9366 18.1271L43.9843 16.9807C43.097 16.0537 41.9166 15.3416 40.2611 15.3416C37.2648 15.3416 34.7467 18.0089 34.7467 21.2872C34.7467 24.5654 37.2648 27.2328 40.2611 27.2328C41.8806 27.2328 43.097 26.6523 44.0532 25.5633C45.0331 24.4912 45.3385 22.9837 45.3385 21.7664C45.3385 21.3884 45.3097 21.0408 45.2583 20.7506H40.2611ZM77.5305 22.0117C77.2416 21.1556 76.3501 19.5772 74.5342 19.5772C72.7348 19.5772 71.2367 21.1286 71.2367 23.4056C71.2367 25.5498 72.7194 27.2328 74.707 27.2328C76.3141 27.2328 77.2416 26.1607 77.623 25.5363L76.4303 24.6667C76.0324 25.3034 75.4905 25.7253 74.707 25.7253C73.9286 25.7253 73.3702 25.3349 73.0124 24.5654L77.6919 22.4471L77.5305 22.0117ZM72.7595 23.2863C72.7194 21.8103 73.8073 21.0543 74.5867 21.0543C75.1974 21.0543 75.7157 21.3884 75.8884 21.8666L72.7595 23.2863ZM68.956 26.9999H70.4943V15.7499H68.956V26.9999ZM66.4369 20.4299H66.3854C66.04 19.9822 65.3809 19.5772 64.5459 19.5772C62.7938 19.5772 61.1918 21.2602 61.1918 23.4179C61.1918 25.5633 62.7938 27.2328 64.5459 27.2328C65.3809 27.2328 66.04 26.8244 66.3854 26.3632H66.4369V26.9122C66.4369 28.3758 65.7222 29.1622 64.5696 29.1622C63.6298 29.1622 63.0468 28.4197 62.8062 27.7953L61.4684 28.4062C61.854 29.4209 62.8751 30.6697 64.5696 30.6697C66.3731 30.6697 67.8949 29.5087 67.8949 26.6838V19.8101H66.4369V20.4299ZM64.6776 25.7253C63.6174 25.7253 62.7301 24.7544 62.7301 23.4179C62.7301 22.0691 63.6174 21.0847 64.6776 21.0847C65.7222 21.0847 66.5459 22.0691 66.5459 23.4179C66.5459 24.7544 65.7222 25.7253 64.6776 25.7253ZM84.7322 15.7499H81.0532V26.9999H82.5873V22.7373H84.7322C86.436 22.7373 88.1069 21.3884 88.1069 19.2431C88.1069 17.0988 86.4319 15.7499 84.7322 15.7499ZM84.7723 21.1724H82.5873V17.3148H84.7723C85.9178 17.3148 86.5718 18.3554 86.5718 19.2431C86.5718 20.1138 85.9178 21.1724 84.7723 21.1724ZM94.2558 19.5558C93.1473 19.5558 91.9947 20.0913 91.5206 21.2782L92.882 21.9026C93.1751 21.2782 93.7139 21.0757 94.2835 21.0757C95.0794 21.0757 95.8865 21.5988 95.8989 22.5224V22.6406C95.6212 22.4651 95.0269 22.2052 94.2959 22.2052C92.8296 22.2052 91.3356 23.0883 91.3356 24.7364C91.3356 26.2439 92.5365 27.2148 93.8866 27.2148C94.919 27.2148 95.4886 26.7052 95.8464 26.1123H95.8989V26.9819H97.3806V22.6664C97.3806 20.6718 96.0192 19.5558 94.2558 19.5558ZM94.0707 25.7208C93.5689 25.7208 92.8697 25.4486 92.8697 24.7679C92.8697 23.8972 93.7416 23.5631 94.4964 23.5631C95.1719 23.5631 95.4886 23.7262 95.8989 23.9411C95.7786 24.9828 94.9591 25.7208 94.0707 25.7208ZM102.779 19.8022L101.015 24.6791H100.963L99.1399 19.8022H97.4854L100.225 26.6174L98.6617 30.4098H100.265L104.486 19.8022H102.779ZM88.9501 26.9999H90.4883V15.7499H88.9501V26.9999Z" fill="white"/>
<path d="M9.57139 6.78502C9.32975 7.06177 9.18991 7.49264 9.18991 8.05064V27.9541C9.18991 28.5121 9.32975 28.943 9.57139 29.2198L9.63102 29.2805L19.8249 18.1318V17.8685L9.63102 6.71977L9.57139 6.78502Z" fill="url(#paint0_linear_1220_253)"/>
<path d="M23.2191 21.8499L19.8249 18.1317V17.8685L23.2232 14.1504L23.2993 14.1987L27.3238 16.7041C28.4724 17.4151 28.4724 18.5851 27.3238 19.3006L23.2993 21.8015L23.2191 21.8499Z" fill="url(#paint1_linear_1220_253)"/>
<path d="M23.2993 21.8015L19.8249 18.0001L9.57135 29.2197C9.95283 29.6585 10.5749 29.7113 11.2823 29.2726L23.2993 21.8015Z" fill="url(#paint2_linear_1220_253)"/>
<path d="M23.2993 14.1986L11.2823 6.7275C10.5749 6.29325 9.95283 6.34613 9.57135 6.78488L19.8249 18L23.2993 14.1986Z" fill="url(#paint3_linear_1220_253)"/>
<defs>
<linearGradient id="paint0_linear_1220_253" x1="18.9198" y1="28.1614" x2="3.87657" y2="14.4121" gradientUnits="userSpaceOnUse">
<stop stop-color="#00A0FF"/>
<stop offset="0.0066" stop-color="#00A1FF"/>
<stop offset="0.2601" stop-color="#00BEFF"/>
<stop offset="0.5122" stop-color="#00D2FF"/>
<stop offset="0.7604" stop-color="#00DFFF"/>
<stop offset="1" stop-color="#00E3FF"/>
</linearGradient>
<linearGradient id="paint1_linear_1220_253" x1="28.8194" y1="17.9988" x2="8.91535" y2="17.9988" gradientUnits="userSpaceOnUse">
<stop stop-color="#FFE000"/>
<stop offset="0.4087" stop-color="#FFBD00"/>
<stop offset="0.7754" stop-color="#FFA500"/>
<stop offset="1" stop-color="#FF9C00"/>
</linearGradient>
<linearGradient id="paint2_linear_1220_253" x1="21.41" y1="15.9336" x2="1.01013" y2="-2.71163" gradientUnits="userSpaceOnUse">
<stop stop-color="#FF3A44"/>
<stop offset="1" stop-color="#C31162"/>
</linearGradient>
<linearGradient id="paint3_linear_1220_253" x1="6.99032" y1="35.8414" x2="16.0998" y2="27.5156" gradientUnits="userSpaceOnUse">
<stop stop-color="#32A071"/>
<stop offset="0.0685" stop-color="#2DA771"/>
<stop offset="0.4762" stop-color="#15CF74"/>
<stop offset="0.8009" stop-color="#06E775"/>
<stop offset="1" stop-color="#00F076"/>
</linearGradient>
</defs>
</svg>
