<svg width="68" height="13" viewBox="0 0 68 13" fill="none" xmlns="http://www.w3.org/2000/svg">
<path fill-rule="evenodd" clip-rule="evenodd" d="M6.56587 9.55312L3.4782 11.1903L4.06789 7.7227L1.56992 5.26693L5.02204 4.76101L6.56587 1.60608L8.10971 4.76101L11.5618 5.26693L9.06385 7.7227L9.65354 11.1903L6.56587 9.55312Z" fill="#0772BF"/>
<path fill-rule="evenodd" clip-rule="evenodd" d="M19.4555 9.55312L16.3679 11.1903L16.9576 7.7227L14.4596 5.26693L17.9117 4.76101L19.4555 1.60608L20.9994 4.76101L24.4515 5.26693L21.9535 7.7227L22.5432 11.1903L19.4555 9.55312Z" fill="#0772BF"/>
<path fill-rule="evenodd" clip-rule="evenodd" d="M33.3367 9.55312L30.249 11.1903L30.8387 7.7227L28.3408 5.26693L31.7929 4.76101L33.3367 1.60608L34.8805 4.76101L38.3327 5.26693L35.8347 7.7227L36.4244 11.1903L33.3367 9.55312Z" fill="#0772BF"/>
<path fill-rule="evenodd" clip-rule="evenodd" d="M47.2179 9.55312L44.1302 11.1903L44.7199 7.7227L42.2219 5.26693L45.674 4.76101L47.2179 1.60608L48.7617 4.76101L52.2138 5.26693L49.7159 7.7227L50.3056 11.1903L47.2179 9.55312Z" fill="#0772BF"/>
<g opacity="0.3">
<path fill-rule="evenodd" clip-rule="evenodd" d="M61.0991 9.55312L58.0114 11.1903L58.6011 7.7227L56.1031 5.26693L59.5552 4.76101L61.0991 1.60608L62.6429 4.76101L66.095 5.26693L63.597 7.7227L64.1867 11.1903L61.0991 9.55312Z" fill="#454545"/>
</g>
</svg>
