<svg width="105" height="31" viewBox="0 0 105 31" fill="none" xmlns="http://www.w3.org/2000/svg">
<path d="M15.38 30V24.12H0.638V20.592L14.666 0.599998H19.79V20.256H23.906V24.12H19.79V30H15.38ZM5.468 20.256H15.632V5.514L5.468 20.256ZM29.746 30.252C28.906 30.252 28.206 29.986 27.646 29.454C27.114 28.894 26.848 28.236 26.848 27.48C26.848 26.696 27.114 26.038 27.646 25.506C28.206 24.946 28.906 24.666 29.746 24.666C30.586 24.666 31.272 24.946 31.804 25.506C32.336 26.038 32.602 26.696 32.602 27.48C32.602 28.236 32.336 28.894 31.804 29.454C31.272 29.986 30.586 30.252 29.746 30.252ZM46.6634 30.504C44.7594 30.504 43.0234 30.168 41.4554 29.496C39.9154 28.796 38.6834 27.746 37.7594 26.346C36.8354 24.946 36.3454 23.196 36.2894 21.096H40.6994C40.7554 22.664 41.2874 23.994 42.2954 25.086C43.3314 26.15 44.7874 26.682 46.6634 26.682C48.4554 26.682 49.8274 26.192 50.7794 25.212C51.7314 24.204 52.2074 22.958 52.2074 21.474C52.2074 19.682 51.5634 18.352 50.2754 17.484C49.0154 16.616 47.4614 16.182 45.6134 16.182H43.4294V12.486H45.6554C47.3074 12.486 48.6374 12.094 49.6454 11.31C50.6814 10.526 51.1994 9.42 51.1994 7.992C51.1994 6.788 50.7934 5.808 49.9814 5.052C49.1974 4.296 48.0774 3.918 46.6214 3.918C45.1094 3.918 43.9194 4.366 43.0514 5.262C42.1834 6.13 41.7074 7.222 41.6234 8.538H37.2134C37.2694 6.83 37.6894 5.346 38.4734 4.086C39.2854 2.826 40.3914 1.846 41.7914 1.146C43.1914 0.445999 44.8014 0.0959995 46.6214 0.0959995C48.5814 0.0959995 50.2194 0.445999 51.5354 1.146C52.8794 1.818 53.8874 2.742 54.5594 3.918C55.2594 5.066 55.6094 6.326 55.6094 7.698C55.6094 9.266 55.1754 10.638 54.3074 11.814C53.4394 12.99 52.2774 13.774 50.8214 14.166C52.5014 14.53 53.8874 15.356 54.9794 16.644C56.0714 17.904 56.6174 19.542 56.6174 21.558C56.6174 23.182 56.2394 24.68 55.4834 26.052C54.7274 27.396 53.6074 28.474 52.1234 29.286C50.6394 30.098 48.8194 30.504 46.6634 30.504ZM62.1109 30V0.599998H66.5629V13.2L78.1549 0.599998H83.6569L72.7789 12.318L83.9089 30H78.4909L69.5869 15.72L66.5629 18.996V30H62.1109ZM85.2329 19.668V15.93H93.1709V8.496H97.0349V15.93H104.973V19.668H97.0349V27.144H93.1709V19.668H85.2329Z" fill="#1B1C20"/>
</svg>
