<svg width="361" height="93" viewBox="0 0 361 93" fill="none" xmlns="http://www.w3.org/2000/svg">
<path d="M91.048 23.21C92.728 23.21 94.072 22.748 95.08 21.845C96.067 20.942 96.571 19.745 96.571 18.296C96.571 16.133 95.374 14.558 92.959 13.592L91.069 12.836C89.809 12.311 89.284 11.807 89.284 10.904C89.284 10.001 90.082 9.308 91.279 9.308C92.539 9.308 93.589 9.77 94.45 10.715L96.193 8.447C94.912 7.208 93.274 6.578 91.279 6.578C89.893 6.578 88.738 7.04 87.814 7.943C86.89 8.846 86.428 9.875 86.428 11.03C86.428 13.319 87.562 14.558 89.998 15.566L91.804 16.301C93.001 16.784 93.61 17.54 93.61 18.548C93.61 19.115 93.379 19.577 92.938 19.934C92.035 20.69 90.523 20.69 89.074 19.934C88.36 19.556 87.751 19.073 87.268 18.485L85.336 20.795C86.827 22.307 88.969 23.21 91.048 23.21ZM105.162 23H107.829V16.28C107.829 14.936 107.304 13.907 106.275 13.172C105.225 12.458 103.965 12.101 102.495 12.101C101.025 12.101 99.5546 12.605 98.1056 13.613L99.3026 15.692C100.122 14.957 101.214 14.6 102.537 14.6C103.188 14.6 103.776 14.747 104.322 15.02C104.868 15.293 105.141 15.692 105.141 16.196V16.637C104.196 16.196 103.293 15.965 102.432 15.965C101.109 15.965 99.9956 16.301 99.0506 16.994C98.1056 17.687 97.6226 18.569 97.6226 19.661C97.6226 20.753 98.0636 21.614 98.9666 22.265C99.8486 22.916 100.878 23.252 102.075 23.252C103.272 23.252 104.301 22.958 105.162 22.391V23ZM100.059 19.619C100.059 19.22 100.269 18.863 100.71 18.569C101.151 18.296 101.781 18.149 102.642 18.149C103.482 18.149 104.322 18.422 105.141 18.968V20.165C104.364 20.732 103.524 21.005 102.663 21.005C100.899 21.005 100.059 20.438 100.059 19.619ZM115.45 23L119.755 12.269H116.815L114.106 19.514L111.376 12.269H108.373L112.636 23H115.45ZM125.361 23.21C127.293 23.21 128.553 22.643 129.813 21.299L128.28 19.682C127.419 20.417 126.432 20.774 125.361 20.774C124.563 20.774 123.87 20.543 123.261 20.06C122.652 19.598 122.316 19.01 122.274 18.275H130.737C130.758 18.128 130.758 18.002 130.758 17.855C130.758 17.729 130.758 17.603 130.737 17.477C130.716 15.923 130.17 14.621 129.099 13.592C128.028 12.563 126.684 12.038 125.088 12.038C123.492 12.038 122.19 12.563 121.161 13.634C120.132 14.705 119.628 16.007 119.628 17.561C119.628 19.115 120.153 20.438 121.182 21.551C122.211 22.664 123.618 23.21 125.361 23.21ZM125.13 14.39C126.537 14.39 127.566 15.209 127.839 16.28H122.421C122.778 15.02 123.681 14.39 125.13 14.39ZM141.209 22.895L139.655 26.759H142.28L148.454 12.269H145.514L142.616 19.43L139.802 12.269H136.694L141.209 22.895ZM159.784 17.603C159.784 16.07 159.238 14.747 158.146 13.655C157.054 12.563 155.689 12.017 154.051 12.017C152.413 12.017 151.048 12.563 149.956 13.655C148.864 14.747 148.318 16.07 148.318 17.603C148.318 19.157 148.864 20.48 149.935 21.572C151.006 22.664 152.371 23.21 154.051 23.21C155.71 23.21 157.096 22.664 158.167 21.551C159.238 20.459 159.784 19.136 159.784 17.603ZM151.972 19.661C151.405 19.094 151.132 18.401 151.132 17.582C151.132 16.763 151.405 16.07 151.972 15.524C152.539 14.978 153.232 14.705 154.051 14.705C154.87 14.705 155.563 14.978 156.13 15.524C156.697 16.07 156.97 16.763 156.97 17.582C156.97 18.401 156.697 19.094 156.13 19.661C155.563 20.228 154.87 20.522 154.051 20.522C153.232 20.522 152.539 20.228 151.972 19.661ZM168.391 23H171.226V12.269H168.391V19.325C167.992 20.165 167.32 20.585 166.375 20.585C165.115 20.585 164.107 19.703 164.107 18.359V12.269H161.293V18.59C161.293 20.018 161.734 21.131 162.637 21.95C163.54 22.769 164.548 23.168 165.661 23.168C166.774 23.168 167.677 22.853 168.391 22.244V23ZM176.498 23V15.86C176.666 15.188 177.254 14.747 178.031 14.747C178.808 14.747 179.459 15.398 179.459 16.301H181.958V15.818C181.958 14.768 181.643 13.907 180.992 13.214C180.341 12.542 179.501 12.206 178.472 12.206C177.737 12.206 177.065 12.437 176.498 12.899V12.269H173.663V23H176.498ZM189.632 14.705V23H192.425V14.705H194.063V12.269H192.425V7.502L189.632 9.308V12.269H188.036V14.705H189.632ZM198.298 23V12.269H195.463V23H198.298ZM198.025 9.686C198.676 9.056 198.676 8.048 198.025 7.397C197.416 6.788 196.366 6.767 195.757 7.418C195.148 8.027 195.148 9.056 195.757 9.686C196.345 10.316 197.374 10.316 198.025 9.686ZM210.562 23V15.944C211.129 15.209 211.759 14.852 212.452 14.852C213.859 14.852 214.762 15.734 214.762 17.078V23H217.576V16.7C217.576 15.293 217.135 14.18 216.274 13.361C215.392 12.542 214.3 12.143 212.977 12.143C211.654 12.143 210.541 12.626 209.617 13.592C208.756 12.626 207.58 12.143 206.068 12.143C205.06 12.143 204.22 12.416 203.569 12.983V12.269H200.734V23H203.569V15.923C204.136 15.209 204.766 14.852 205.48 14.852C206.908 14.852 207.748 15.671 207.748 17.015V23H210.562ZM224.824 23.21C226.756 23.21 228.016 22.643 229.276 21.299L227.743 19.682C226.882 20.417 225.895 20.774 224.824 20.774C224.026 20.774 223.333 20.543 222.724 20.06C222.115 19.598 221.779 19.01 221.737 18.275H230.2C230.221 18.128 230.221 18.002 230.221 17.855C230.221 17.729 230.221 17.603 230.2 17.477C230.179 15.923 229.633 14.621 228.562 13.592C227.491 12.563 226.147 12.038 224.551 12.038C222.955 12.038 221.653 12.563 220.624 13.634C219.595 14.705 219.091 16.007 219.091 17.561C219.091 19.115 219.616 20.438 220.645 21.551C221.674 22.664 223.081 23.21 224.824 23.21ZM224.593 14.39C226 14.39 227.029 15.209 227.302 16.28H221.884C222.241 15.02 223.144 14.39 224.593 14.39Z" fill="#1B1C20"/>
<path d="M87.808 62V51.904H84.464V50.8H92.496V51.904H89.152V62H87.808ZM94.0571 62V50.48H95.4011V55.424C95.6678 54.9333 96.0465 54.5547 96.5371 54.288C97.0278 54.0107 97.5611 53.872 98.1371 53.872C99.0545 53.872 99.7905 54.16 100.345 54.736C100.9 55.3013 101.177 56.176 101.177 57.36V62H99.8491V57.504C99.8491 55.8507 99.1825 55.024 97.8491 55.024C97.1558 55.024 96.5745 55.2747 96.1051 55.776C95.6358 56.2667 95.4011 56.9707 95.4011 57.888V62H94.0571ZM104.029 52.304C103.763 52.304 103.539 52.2187 103.357 52.048C103.187 51.8667 103.101 51.6427 103.101 51.376C103.101 51.12 103.187 50.9067 103.357 50.736C103.539 50.5653 103.763 50.48 104.029 50.48C104.285 50.48 104.504 50.5653 104.685 50.736C104.867 50.9067 104.957 51.12 104.957 51.376C104.957 51.6427 104.867 51.8667 104.685 52.048C104.504 52.2187 104.285 52.304 104.029 52.304ZM103.357 62V54.064H104.701V62H103.357ZM110.082 62.192C109.132 62.192 108.343 61.952 107.714 61.472C107.084 60.992 106.716 60.3413 106.61 59.52H107.986C108.071 59.936 108.29 60.2987 108.642 60.608C109.004 60.9067 109.49 61.056 110.098 61.056C110.663 61.056 111.079 60.9387 111.346 60.704C111.612 60.4587 111.746 60.1707 111.746 59.84C111.746 59.36 111.57 59.04 111.218 58.88C110.876 58.72 110.391 58.576 109.762 58.448C109.335 58.3627 108.908 58.24 108.482 58.08C108.055 57.92 107.698 57.696 107.41 57.408C107.122 57.1093 106.978 56.72 106.978 56.24C106.978 55.5467 107.234 54.9813 107.746 54.544C108.268 54.096 108.972 53.872 109.858 53.872C110.7 53.872 111.388 54.0853 111.922 54.512C112.466 54.928 112.78 55.5253 112.866 56.304H111.538C111.484 55.8987 111.308 55.584 111.01 55.36C110.722 55.1253 110.332 55.008 109.842 55.008C109.362 55.008 108.988 55.1093 108.722 55.312C108.466 55.5147 108.338 55.7813 108.338 56.112C108.338 56.432 108.503 56.6827 108.834 56.864C109.175 57.0453 109.634 57.2 110.21 57.328C110.7 57.4347 111.164 57.568 111.602 57.728C112.05 57.8773 112.412 58.1067 112.69 58.416C112.978 58.7147 113.122 59.152 113.122 59.728C113.132 60.4427 112.86 61.0347 112.306 61.504C111.762 61.9627 111.02 62.192 110.082 62.192ZM122.316 62.192C121.367 62.192 120.577 61.952 119.948 61.472C119.319 60.992 118.951 60.3413 118.844 59.52H120.22C120.305 59.936 120.524 60.2987 120.876 60.608C121.239 60.9067 121.724 61.056 122.332 61.056C122.897 61.056 123.313 60.9387 123.58 60.704C123.847 60.4587 123.98 60.1707 123.98 59.84C123.98 59.36 123.804 59.04 123.452 58.88C123.111 58.72 122.625 58.576 121.996 58.448C121.569 58.3627 121.143 58.24 120.716 58.08C120.289 57.92 119.932 57.696 119.644 57.408C119.356 57.1093 119.212 56.72 119.212 56.24C119.212 55.5467 119.468 54.9813 119.98 54.544C120.503 54.096 121.207 53.872 122.092 53.872C122.935 53.872 123.623 54.0853 124.156 54.512C124.7 54.928 125.015 55.5253 125.1 56.304H123.772C123.719 55.8987 123.543 55.584 123.244 55.36C122.956 55.1253 122.567 55.008 122.076 55.008C121.596 55.008 121.223 55.1093 120.956 55.312C120.7 55.5147 120.572 55.7813 120.572 56.112C120.572 56.432 120.737 56.6827 121.068 56.864C121.409 57.0453 121.868 57.2 122.444 57.328C122.935 57.4347 123.399 57.568 123.836 57.728C124.284 57.8773 124.647 58.1067 124.924 58.416C125.212 58.7147 125.356 59.152 125.356 59.728C125.367 60.4427 125.095 61.0347 124.54 61.504C123.996 61.9627 123.255 62.192 122.316 62.192ZM130.892 62.192C130.145 62.192 129.473 62.0213 128.876 61.68C128.279 61.3387 127.804 60.8587 127.452 60.24C127.111 59.6107 126.94 58.8747 126.94 58.032C126.94 57.1893 127.116 56.4587 127.468 55.84C127.82 55.2107 128.295 54.7253 128.892 54.384C129.5 54.0427 130.177 53.872 130.924 53.872C131.671 53.872 132.343 54.0427 132.94 54.384C133.537 54.7253 134.007 55.2107 134.348 55.84C134.7 56.4587 134.876 57.1893 134.876 58.032C134.876 58.8747 134.7 59.6107 134.348 60.24C133.996 60.8587 133.516 61.3387 132.908 61.68C132.311 62.0213 131.639 62.192 130.892 62.192ZM130.892 61.04C131.351 61.04 131.777 60.928 132.172 60.704C132.567 60.48 132.887 60.144 133.132 59.696C133.377 59.248 133.5 58.6933 133.5 58.032C133.5 57.3707 133.377 56.816 133.132 56.368C132.897 55.92 132.583 55.584 132.188 55.36C131.793 55.136 131.372 55.024 130.924 55.024C130.465 55.024 130.039 55.136 129.644 55.36C129.249 55.584 128.929 55.92 128.684 56.368C128.439 56.816 128.316 57.3707 128.316 58.032C128.316 58.6933 128.439 59.248 128.684 59.696C128.929 60.144 129.244 60.48 129.628 60.704C130.023 60.928 130.444 61.04 130.892 61.04ZM137.177 62V55.2H135.977V54.064H137.177V52.688C137.177 51.92 137.369 51.36 137.753 51.008C138.137 50.656 138.697 50.48 139.433 50.48H140.233V51.632H139.641C139.235 51.632 138.947 51.7173 138.777 51.888C138.606 52.048 138.521 52.3253 138.521 52.72V54.064H140.473V55.2H138.521V62H137.177ZM145.209 62C144.483 62 143.913 61.824 143.497 61.472C143.081 61.12 142.873 60.4853 142.873 59.568V55.2H141.497V54.064H142.873L143.049 52.16H144.217V54.064H146.553V55.2H144.217V59.568C144.217 60.0693 144.318 60.4107 144.521 60.592C144.723 60.7627 145.081 60.848 145.593 60.848H146.425V62H145.209ZM149.86 62L147.54 54.064H148.884L150.564 60.288L152.42 54.064H153.94L155.812 60.288L157.476 54.064H158.836L156.516 62H155.14L153.188 55.456L151.236 62H149.86ZM162.682 62.192C162.02 62.192 161.471 62.08 161.034 61.856C160.596 61.632 160.271 61.3333 160.058 60.96C159.844 60.5867 159.738 60.1813 159.738 59.744C159.738 58.9333 160.047 58.3093 160.666 57.872C161.284 57.4347 162.127 57.216 163.194 57.216H165.338V57.12C165.338 56.4267 165.156 55.904 164.794 55.552C164.431 55.1893 163.946 55.008 163.338 55.008C162.815 55.008 162.362 55.1413 161.978 55.408C161.604 55.664 161.37 56.0427 161.274 56.544H159.898C159.951 55.968 160.143 55.4827 160.474 55.088C160.815 54.6933 161.236 54.3947 161.738 54.192C162.239 53.9787 162.772 53.872 163.338 53.872C164.447 53.872 165.279 54.1707 165.834 54.768C166.399 55.3547 166.682 56.1387 166.682 57.12V62H165.482L165.402 60.576C165.178 61.024 164.847 61.408 164.41 61.728C163.983 62.0373 163.407 62.192 162.682 62.192ZM162.89 61.056C163.402 61.056 163.839 60.9227 164.202 60.656C164.575 60.3893 164.858 60.0427 165.05 59.616C165.242 59.1893 165.338 58.7413 165.338 58.272V58.256H163.306C162.516 58.256 161.956 58.3947 161.626 58.672C161.306 58.9387 161.146 59.2747 161.146 59.68C161.146 60.096 161.295 60.432 161.594 60.688C161.903 60.9333 162.335 61.056 162.89 61.056ZM168.698 62V54.064H169.914L170.026 55.584C170.271 55.0613 170.644 54.6453 171.146 54.336C171.647 54.0267 172.266 53.872 173.002 53.872V55.28H172.634C172.164 55.28 171.732 55.3653 171.338 55.536C170.943 55.696 170.628 55.9733 170.394 56.368C170.159 56.7627 170.042 57.3067 170.042 58V62H168.698ZM177.781 62.192C177.024 62.192 176.352 62.0213 175.765 61.68C175.179 61.328 174.715 60.8427 174.373 60.224C174.043 59.6053 173.877 58.8747 173.877 58.032C173.877 57.2 174.043 56.4747 174.373 55.856C174.704 55.2267 175.163 54.7413 175.749 54.4C176.347 54.048 177.035 53.872 177.813 53.872C178.581 53.872 179.243 54.048 179.797 54.4C180.363 54.7413 180.795 55.1947 181.093 55.76C181.392 56.3253 181.541 56.9333 181.541 57.584C181.541 57.7013 181.536 57.8187 181.525 57.936C181.525 58.0533 181.525 58.1867 181.525 58.336H175.205C175.237 58.944 175.376 59.4507 175.621 59.856C175.877 60.2507 176.192 60.5493 176.565 60.752C176.949 60.9547 177.355 61.056 177.781 61.056C178.336 61.056 178.8 60.928 179.173 60.672C179.547 60.416 179.819 60.0693 179.989 59.632H181.317C181.104 60.368 180.693 60.9813 180.085 61.472C179.488 61.952 178.72 62.192 177.781 62.192ZM177.781 55.008C177.141 55.008 176.571 55.2053 176.069 55.6C175.579 55.984 175.296 56.5493 175.221 57.296H180.213C180.181 56.5813 179.936 56.0213 179.477 55.616C179.019 55.2107 178.453 55.008 177.781 55.008ZM188.373 52.304C188.106 52.304 187.882 52.2187 187.701 52.048C187.53 51.8667 187.445 51.6427 187.445 51.376C187.445 51.12 187.53 50.9067 187.701 50.736C187.882 50.5653 188.106 50.48 188.373 50.48C188.629 50.48 188.848 50.5653 189.029 50.736C189.21 50.9067 189.301 51.12 189.301 51.376C189.301 51.6427 189.21 51.8667 189.029 52.048C188.848 52.2187 188.629 52.304 188.373 52.304ZM187.701 62V54.064H189.045V62H187.701ZM194.425 62.192C193.476 62.192 192.687 61.952 192.057 61.472C191.428 60.992 191.06 60.3413 190.953 59.52H192.329C192.415 59.936 192.633 60.2987 192.985 60.608C193.348 60.9067 193.833 61.056 194.441 61.056C195.007 61.056 195.423 60.9387 195.689 60.704C195.956 60.4587 196.089 60.1707 196.089 59.84C196.089 59.36 195.913 59.04 195.561 58.88C195.22 58.72 194.735 58.576 194.105 58.448C193.679 58.3627 193.252 58.24 192.825 58.08C192.399 57.92 192.041 57.696 191.753 57.408C191.465 57.1093 191.321 56.72 191.321 56.24C191.321 55.5467 191.577 54.9813 192.089 54.544C192.612 54.096 193.316 53.872 194.201 53.872C195.044 53.872 195.732 54.0853 196.265 54.512C196.809 54.928 197.124 55.5253 197.209 56.304H195.881C195.828 55.8987 195.652 55.584 195.353 55.36C195.065 55.1253 194.676 55.008 194.185 55.008C193.705 55.008 193.332 55.1093 193.065 55.312C192.809 55.5147 192.681 55.7813 192.681 56.112C192.681 56.432 192.847 56.6827 193.177 56.864C193.519 57.0453 193.977 57.2 194.553 57.328C195.044 57.4347 195.508 57.568 195.945 57.728C196.393 57.8773 196.756 58.1067 197.033 58.416C197.321 58.7147 197.465 59.152 197.465 59.728C197.476 60.4427 197.204 61.0347 196.649 61.504C196.105 61.9627 195.364 62.192 194.425 62.192ZM205.908 62L202.9 54.064H204.308L206.692 60.704L209.092 54.064H210.468L207.46 62H205.908ZM215.125 62.192C214.368 62.192 213.696 62.0213 213.109 61.68C212.522 61.328 212.058 60.8427 211.717 60.224C211.386 59.6053 211.221 58.8747 211.221 58.032C211.221 57.2 211.386 56.4747 211.717 55.856C212.048 55.2267 212.506 54.7413 213.093 54.4C213.69 54.048 214.378 53.872 215.157 53.872C215.925 53.872 216.586 54.048 217.141 54.4C217.706 54.7413 218.138 55.1947 218.437 55.76C218.736 56.3253 218.885 56.9333 218.885 57.584C218.885 57.7013 218.88 57.8187 218.869 57.936C218.869 58.0533 218.869 58.1867 218.869 58.336H212.549C212.581 58.944 212.72 59.4507 212.965 59.856C213.221 60.2507 213.536 60.5493 213.909 60.752C214.293 60.9547 214.698 61.056 215.125 61.056C215.68 61.056 216.144 60.928 216.517 60.672C216.89 60.416 217.162 60.0693 217.333 59.632H218.661C218.448 60.368 218.037 60.9813 217.429 61.472C216.832 61.952 216.064 62.192 215.125 62.192ZM215.125 55.008C214.485 55.008 213.914 55.2053 213.413 55.6C212.922 55.984 212.64 56.5493 212.565 57.296H217.557C217.525 56.5813 217.28 56.0213 216.821 55.616C216.362 55.2107 215.797 55.008 215.125 55.008ZM220.667 62V54.064H221.883L221.995 55.584C222.24 55.0613 222.613 54.6453 223.115 54.336C223.616 54.0267 224.235 53.872 224.971 53.872V55.28H224.603C224.133 55.28 223.701 55.3653 223.307 55.536C222.912 55.696 222.597 55.9733 222.363 56.368C222.128 56.7627 222.011 57.3067 222.011 58V62H220.667ZM227.343 65.52L229.311 61.232H228.847L225.695 54.064H227.151L229.775 60.24L232.559 54.064H233.951L228.751 65.52H227.343ZM243.172 62.192C242.415 62.192 241.743 62.0213 241.156 61.68C240.569 61.328 240.105 60.8427 239.764 60.224C239.433 59.6053 239.268 58.8747 239.268 58.032C239.268 57.2 239.433 56.4747 239.764 55.856C240.095 55.2267 240.553 54.7413 241.14 54.4C241.737 54.048 242.425 53.872 243.204 53.872C243.972 53.872 244.633 54.048 245.188 54.4C245.753 54.7413 246.185 55.1947 246.484 55.76C246.783 56.3253 246.932 56.9333 246.932 57.584C246.932 57.7013 246.927 57.8187 246.916 57.936C246.916 58.0533 246.916 58.1867 246.916 58.336H240.596C240.628 58.944 240.767 59.4507 241.012 59.856C241.268 60.2507 241.583 60.5493 241.956 60.752C242.34 60.9547 242.745 61.056 243.172 61.056C243.727 61.056 244.191 60.928 244.564 60.672C244.937 60.416 245.209 60.0693 245.38 59.632H246.708C246.495 60.368 246.084 60.9813 245.476 61.472C244.879 61.952 244.111 62.192 243.172 62.192ZM243.172 55.008C242.532 55.008 241.961 55.2053 241.46 55.6C240.969 55.984 240.687 56.5493 240.612 57.296H245.604C245.572 56.5813 245.327 56.0213 244.868 55.616C244.409 55.2107 243.844 55.008 243.172 55.008ZM251.353 62.192C250.692 62.192 250.143 62.08 249.705 61.856C249.268 61.632 248.943 61.3333 248.729 60.96C248.516 60.5867 248.409 60.1813 248.409 59.744C248.409 58.9333 248.719 58.3093 249.337 57.872C249.956 57.4347 250.799 57.216 251.865 57.216H254.009V57.12C254.009 56.4267 253.828 55.904 253.465 55.552C253.103 55.1893 252.617 55.008 252.009 55.008C251.487 55.008 251.033 55.1413 250.649 55.408C250.276 55.664 250.041 56.0427 249.945 56.544H248.569C248.623 55.968 248.815 55.4827 249.145 55.088C249.487 54.6933 249.908 54.3947 250.409 54.192C250.911 53.9787 251.444 53.872 252.009 53.872C253.119 53.872 253.951 54.1707 254.505 54.768C255.071 55.3547 255.353 56.1387 255.353 57.12V62H254.153L254.073 60.576C253.849 61.024 253.519 61.408 253.081 61.728C252.655 62.0373 252.079 62.192 251.353 62.192ZM251.561 61.056C252.073 61.056 252.511 60.9227 252.873 60.656C253.247 60.3893 253.529 60.0427 253.721 59.616C253.913 59.1893 254.009 58.7413 254.009 58.272V58.256H251.977C251.188 58.256 250.628 58.3947 250.297 58.672C249.977 58.9387 249.817 59.2747 249.817 59.68C249.817 60.096 249.967 60.432 250.265 60.688C250.575 60.9333 251.007 61.056 251.561 61.056ZM260.41 62.192C259.46 62.192 258.671 61.952 258.042 61.472C257.412 60.992 257.044 60.3413 256.938 59.52H258.314C258.399 59.936 258.618 60.2987 258.97 60.608C259.332 60.9067 259.818 61.056 260.426 61.056C260.991 61.056 261.407 60.9387 261.674 60.704C261.94 60.4587 262.074 60.1707 262.074 59.84C262.074 59.36 261.898 59.04 261.546 58.88C261.204 58.72 260.719 58.576 260.09 58.448C259.663 58.3627 259.236 58.24 258.81 58.08C258.383 57.92 258.026 57.696 257.738 57.408C257.45 57.1093 257.306 56.72 257.306 56.24C257.306 55.5467 257.562 54.9813 258.074 54.544C258.596 54.096 259.3 53.872 260.186 53.872C261.028 53.872 261.716 54.0853 262.25 54.512C262.794 54.928 263.108 55.5253 263.194 56.304H261.866C261.812 55.8987 261.636 55.584 261.338 55.36C261.05 55.1253 260.66 55.008 260.17 55.008C259.69 55.008 259.316 55.1093 259.05 55.312C258.794 55.5147 258.666 55.7813 258.666 56.112C258.666 56.432 258.831 56.6827 259.162 56.864C259.503 57.0453 259.962 57.2 260.538 57.328C261.028 57.4347 261.492 57.568 261.93 57.728C262.378 57.8773 262.74 58.1067 263.018 58.416C263.306 58.7147 263.45 59.152 263.45 59.728C263.46 60.4427 263.188 61.0347 262.634 61.504C262.09 61.9627 261.348 62.192 260.41 62.192ZM265.89 65.52L267.858 61.232H267.394L264.242 54.064H265.698L268.322 60.24L271.106 54.064H272.498L267.298 65.52H265.89ZM278.583 62V55.2H277.383V54.064H278.583V52.688C278.583 51.92 278.775 51.36 279.159 51.008C279.543 50.656 280.103 50.48 280.839 50.48H281.639V51.632H281.047C280.642 51.632 280.354 51.7173 280.183 51.888C280.012 52.048 279.927 52.3253 279.927 52.72V54.064H281.879V55.2H279.927V62H278.583ZM286.783 62.192C286.036 62.192 285.364 62.0213 284.767 61.68C284.169 61.3387 283.695 60.8587 283.343 60.24C283.001 59.6107 282.831 58.8747 282.831 58.032C282.831 57.1893 283.007 56.4587 283.359 55.84C283.711 55.2107 284.185 54.7253 284.783 54.384C285.391 54.0427 286.068 53.872 286.815 53.872C287.561 53.872 288.233 54.0427 288.831 54.384C289.428 54.7253 289.897 55.2107 290.239 55.84C290.591 56.4587 290.767 57.1893 290.767 58.032C290.767 58.8747 290.591 59.6107 290.239 60.24C289.887 60.8587 289.407 61.3387 288.799 61.68C288.201 62.0213 287.529 62.192 286.783 62.192ZM286.783 61.04C287.241 61.04 287.668 60.928 288.063 60.704C288.457 60.48 288.777 60.144 289.023 59.696C289.268 59.248 289.391 58.6933 289.391 58.032C289.391 57.3707 289.268 56.816 289.023 56.368C288.788 55.92 288.473 55.584 288.079 55.36C287.684 55.136 287.263 55.024 286.815 55.024C286.356 55.024 285.929 55.136 285.535 55.36C285.14 55.584 284.82 55.92 284.575 56.368C284.329 56.816 284.207 57.3707 284.207 58.032C284.207 58.6933 284.329 59.248 284.575 59.696C284.82 60.144 285.135 60.48 285.519 60.704C285.913 60.928 286.335 61.04 286.783 61.04ZM292.635 62V54.064H293.851L293.963 55.584C294.209 55.0613 294.582 54.6453 295.083 54.336C295.585 54.0267 296.203 53.872 296.939 53.872V55.28H296.571C296.102 55.28 295.67 55.3653 295.275 55.536C294.881 55.696 294.566 55.9733 294.331 56.368C294.097 56.7627 293.979 57.3067 293.979 58V62H292.635ZM303.546 65.52L305.514 61.232H305.05L301.898 54.064H303.354L305.978 60.24L308.762 54.064H310.154L304.954 65.52H303.546ZM314.439 62.192C313.692 62.192 313.02 62.0213 312.423 61.68C311.825 61.3387 311.351 60.8587 310.999 60.24C310.657 59.6107 310.487 58.8747 310.487 58.032C310.487 57.1893 310.663 56.4587 311.015 55.84C311.367 55.2107 311.841 54.7253 312.439 54.384C313.047 54.0427 313.724 53.872 314.471 53.872C315.217 53.872 315.889 54.0427 316.487 54.384C317.084 54.7253 317.553 55.2107 317.895 55.84C318.247 56.4587 318.423 57.1893 318.423 58.032C318.423 58.8747 318.247 59.6107 317.895 60.24C317.543 60.8587 317.063 61.3387 316.455 61.68C315.857 62.0213 315.185 62.192 314.439 62.192ZM314.439 61.04C314.897 61.04 315.324 60.928 315.719 60.704C316.113 60.48 316.433 60.144 316.679 59.696C316.924 59.248 317.047 58.6933 317.047 58.032C317.047 57.3707 316.924 56.816 316.679 56.368C316.444 55.92 316.129 55.584 315.735 55.36C315.34 55.136 314.919 55.024 314.471 55.024C314.012 55.024 313.585 55.136 313.191 55.36C312.796 55.584 312.476 55.92 312.231 56.368C311.985 56.816 311.863 57.3707 311.863 58.032C311.863 58.6933 311.985 59.248 312.231 59.696C312.476 60.144 312.791 60.48 313.175 60.704C313.569 60.928 313.991 61.04 314.439 61.04ZM327.236 54.064V62H326.02L325.94 60.576C325.684 61.0773 325.316 61.472 324.836 61.76C324.356 62.048 323.812 62.192 323.204 62.192C322.265 62.192 321.513 61.9093 320.948 61.344C320.393 60.768 320.116 59.888 320.116 58.704V54.064H321.46V58.56C321.46 60.2133 322.142 61.04 323.508 61.04C324.19 61.04 324.756 60.7947 325.204 60.304C325.662 59.8027 325.892 59.0933 325.892 58.176V54.064H327.236ZM336.818 62C336.093 62 335.522 61.824 335.106 61.472C334.69 61.12 334.482 60.4853 334.482 59.568V55.2H333.106V54.064H334.482L334.658 52.16H335.826V54.064H338.162V55.2H335.826V59.568C335.826 60.0693 335.927 60.4107 336.13 60.592C336.333 60.7627 336.69 60.848 337.202 60.848H338.034V62H336.818ZM343.267 62.192C342.52 62.192 341.848 62.0213 341.251 61.68C340.654 61.3387 340.179 60.8587 339.827 60.24C339.486 59.6107 339.315 58.8747 339.315 58.032C339.315 57.1893 339.491 56.4587 339.843 55.84C340.195 55.2107 340.67 54.7253 341.267 54.384C341.875 54.0427 342.552 53.872 343.299 53.872C344.046 53.872 344.718 54.0427 345.315 54.384C345.912 54.7253 346.382 55.2107 346.723 55.84C347.075 56.4587 347.251 57.1893 347.251 58.032C347.251 58.8747 347.075 59.6107 346.723 60.24C346.371 60.8587 345.891 61.3387 345.283 61.68C344.686 62.0213 344.014 62.192 343.267 62.192ZM343.267 61.04C343.726 61.04 344.152 60.928 344.547 60.704C344.942 60.48 345.262 60.144 345.507 59.696C345.752 59.248 345.875 58.6933 345.875 58.032C345.875 57.3707 345.752 56.816 345.507 56.368C345.272 55.92 344.958 55.584 344.563 55.36C344.168 55.136 343.747 55.024 343.299 55.024C342.84 55.024 342.414 55.136 342.019 55.36C341.624 55.584 341.304 55.92 341.059 56.368C340.814 56.816 340.691 57.3707 340.691 58.032C340.691 58.6933 340.814 59.248 341.059 59.696C341.304 60.144 341.619 60.48 342.003 60.704C342.398 60.928 342.819 61.04 343.267 61.04ZM85.104 86V78.064H86.32L86.416 79.216C86.672 78.7893 87.0133 78.4587 87.44 78.224C87.8667 77.9893 88.3467 77.872 88.88 77.872C89.5093 77.872 90.048 78 90.496 78.256C90.9547 78.512 91.3067 78.9013 91.552 79.424C91.8293 78.944 92.208 78.5653 92.688 78.288C93.1787 78.0107 93.7067 77.872 94.272 77.872C95.2213 77.872 95.9787 78.16 96.544 78.736C97.1093 79.3013 97.392 80.176 97.392 81.36V86H96.064V81.504C96.064 80.6827 95.8987 80.064 95.568 79.648C95.2373 79.232 94.7627 79.024 94.144 79.024C93.504 79.024 92.9707 79.2747 92.544 79.776C92.128 80.2667 91.92 80.9707 91.92 81.888V86H90.576V81.504C90.576 80.6827 90.4107 80.064 90.08 79.648C89.7493 79.232 89.2747 79.024 88.656 79.024C88.0267 79.024 87.4987 79.2747 87.072 79.776C86.656 80.2667 86.448 80.9707 86.448 81.888V86H85.104ZM102.057 86.192C101.395 86.192 100.846 86.08 100.409 85.856C99.9712 85.632 99.6458 85.3333 99.4325 84.96C99.2192 84.5867 99.1125 84.1813 99.1125 83.744C99.1125 82.9333 99.4218 82.3093 100.041 81.872C100.659 81.4347 101.502 81.216 102.569 81.216H104.713V81.12C104.713 80.4267 104.531 79.904 104.169 79.552C103.806 79.1893 103.321 79.008 102.713 79.008C102.19 79.008 101.737 79.1413 101.353 79.408C100.979 79.664 100.745 80.0427 100.649 80.544H99.2725C99.3258 79.968 99.5178 79.4827 99.8485 79.088C100.19 78.6933 100.611 78.3947 101.113 78.192C101.614 77.9787 102.147 77.872 102.713 77.872C103.822 77.872 104.654 78.1707 105.209 78.768C105.774 79.3547 106.057 80.1387 106.057 81.12V86H104.857L104.777 84.576C104.553 85.024 104.222 85.408 103.785 85.728C103.358 86.0373 102.782 86.192 102.057 86.192ZM102.265 85.056C102.777 85.056 103.214 84.9227 103.577 84.656C103.95 84.3893 104.233 84.0427 104.425 83.616C104.617 83.1893 104.713 82.7413 104.713 82.272V82.256H102.681C101.891 82.256 101.331 82.3947 101.001 82.672C100.681 82.9387 100.521 83.2747 100.521 83.68C100.521 84.096 100.67 84.432 100.969 84.688C101.278 84.9333 101.71 85.056 102.265 85.056ZM108.073 86V78.064H109.289L109.369 79.488C109.625 78.9867 109.993 78.592 110.473 78.304C110.953 78.016 111.497 77.872 112.105 77.872C113.043 77.872 113.79 78.16 114.345 78.736C114.91 79.3013 115.193 80.176 115.193 81.36V86H113.849V81.504C113.849 79.8507 113.166 79.024 111.801 79.024C111.118 79.024 110.547 79.2747 110.089 79.776C109.641 80.2667 109.417 80.9707 109.417 81.888V86H108.073ZM119.869 86.192C119.208 86.192 118.658 86.08 118.221 85.856C117.784 85.632 117.458 85.3333 117.245 84.96C117.032 84.5867 116.925 84.1813 116.925 83.744C116.925 82.9333 117.234 82.3093 117.853 81.872C118.472 81.4347 119.314 81.216 120.381 81.216H122.525V81.12C122.525 80.4267 122.344 79.904 121.981 79.552C121.618 79.1893 121.133 79.008 120.525 79.008C120.002 79.008 119.549 79.1413 119.165 79.408C118.792 79.664 118.557 80.0427 118.461 80.544H117.085C117.138 79.968 117.33 79.4827 117.661 79.088C118.002 78.6933 118.424 78.3947 118.925 78.192C119.426 77.9787 119.96 77.872 120.525 77.872C121.634 77.872 122.466 78.1707 123.021 78.768C123.586 79.3547 123.869 80.1387 123.869 81.12V86H122.669L122.589 84.576C122.365 85.024 122.034 85.408 121.597 85.728C121.17 86.0373 120.594 86.192 119.869 86.192ZM120.077 85.056C120.589 85.056 121.026 84.9227 121.389 84.656C121.762 84.3893 122.045 84.0427 122.237 83.616C122.429 83.1893 122.525 82.7413 122.525 82.272V82.256H120.493C119.704 82.256 119.144 82.3947 118.813 82.672C118.493 82.9387 118.333 83.2747 118.333 83.68C118.333 84.096 118.482 84.432 118.781 84.688C119.09 84.9333 119.522 85.056 120.077 85.056ZM129.021 83.504C128.573 83.504 128.163 83.4453 127.789 83.328L126.989 84.08C127.107 84.1653 127.251 84.24 127.421 84.304C127.603 84.3573 127.859 84.4107 128.189 84.464C128.52 84.5067 128.984 84.5547 129.581 84.608C130.648 84.6827 131.411 84.928 131.869 85.344C132.328 85.76 132.557 86.304 132.557 86.976C132.557 87.4347 132.429 87.872 132.173 88.288C131.928 88.704 131.544 89.0453 131.021 89.312C130.509 89.5787 129.848 89.712 129.037 89.712C128.323 89.712 127.688 89.616 127.133 89.424C126.579 89.2427 126.147 88.96 125.837 88.576C125.528 88.2027 125.373 87.728 125.373 87.152C125.373 86.8533 125.453 86.528 125.613 86.176C125.773 85.8347 126.072 85.5093 126.509 85.2C126.275 85.104 126.072 85.0027 125.901 84.896C125.741 84.7787 125.592 84.6507 125.453 84.512V84.144L126.813 82.8C126.184 82.2667 125.869 81.5627 125.869 80.688C125.869 80.1653 125.992 79.6907 126.237 79.264C126.483 78.8373 126.84 78.5013 127.309 78.256C127.779 78 128.349 77.872 129.021 77.872C129.48 77.872 129.896 77.936 130.269 78.064H133.197V79.072L131.709 79.136C132.019 79.584 132.173 80.1013 132.173 80.688C132.173 81.2107 132.045 81.6853 131.789 82.112C131.544 82.5387 131.187 82.88 130.717 83.136C130.259 83.3813 129.693 83.504 129.021 83.504ZM129.021 82.4C129.587 82.4 130.035 82.256 130.365 81.968C130.707 81.6693 130.877 81.2427 130.877 80.688C130.877 80.144 130.707 79.728 130.365 79.44C130.035 79.1413 129.587 78.992 129.021 78.992C128.445 78.992 127.987 79.1413 127.645 79.44C127.315 79.728 127.149 80.144 127.149 80.688C127.149 81.2427 127.315 81.6693 127.645 81.968C127.987 82.256 128.445 82.4 129.021 82.4ZM126.685 87.024C126.685 87.5573 126.909 87.952 127.357 88.208C127.805 88.4747 128.365 88.608 129.037 88.608C129.699 88.608 130.227 88.464 130.621 88.176C131.027 87.888 131.229 87.504 131.229 87.024C131.229 86.6827 131.091 86.384 130.813 86.128C130.536 85.8827 130.024 85.7387 129.277 85.696C128.691 85.6533 128.184 85.6 127.757 85.536C127.32 85.7707 127.032 86.0213 126.893 86.288C126.755 86.5653 126.685 86.8107 126.685 87.024ZM137.969 86.192C137.212 86.192 136.54 86.0213 135.953 85.68C135.366 85.328 134.902 84.8427 134.561 84.224C134.23 83.6053 134.065 82.8747 134.065 82.032C134.065 81.2 134.23 80.4747 134.561 79.856C134.892 79.2267 135.35 78.7413 135.937 78.4C136.534 78.048 137.222 77.872 138.001 77.872C138.769 77.872 139.43 78.048 139.985 78.4C140.55 78.7413 140.982 79.1947 141.281 79.76C141.58 80.3253 141.729 80.9333 141.729 81.584C141.729 81.7013 141.724 81.8187 141.713 81.936C141.713 82.0533 141.713 82.1867 141.713 82.336H135.393C135.425 82.944 135.564 83.4507 135.809 83.856C136.065 84.2507 136.38 84.5493 136.753 84.752C137.137 84.9547 137.542 85.056 137.969 85.056C138.524 85.056 138.988 84.928 139.361 84.672C139.734 84.416 140.006 84.0693 140.177 83.632H141.505C141.292 84.368 140.881 84.9813 140.273 85.472C139.676 85.952 138.908 86.192 137.969 86.192ZM137.969 79.008C137.329 79.008 136.758 79.2053 136.257 79.6C135.766 79.984 135.484 80.5493 135.409 81.296H140.401C140.369 80.5813 140.124 80.0213 139.665 79.616C139.206 79.2107 138.641 79.008 137.969 79.008ZM143.974 86.08C143.708 86.08 143.484 85.9947 143.302 85.824C143.132 85.6427 143.046 85.424 143.046 85.168C143.046 84.912 143.132 84.6987 143.302 84.528C143.484 84.3467 143.708 84.256 143.974 84.256C144.23 84.256 144.444 84.3467 144.614 84.528C144.796 84.6987 144.886 84.912 144.886 85.168C144.886 85.424 144.796 85.6427 144.614 85.824C144.444 85.9947 144.23 86.08 143.974 86.08ZM153.734 86V81.744L150.086 74.8H151.606L154.406 80.464L157.206 74.8H158.71L155.078 81.744V86H153.734ZM162.361 86.192C161.614 86.192 160.942 86.0213 160.345 85.68C159.747 85.3387 159.273 84.8587 158.921 84.24C158.579 83.6107 158.409 82.8747 158.409 82.032C158.409 81.1893 158.585 80.4587 158.937 79.84C159.289 79.2107 159.763 78.7253 160.361 78.384C160.969 78.0427 161.646 77.872 162.393 77.872C163.139 77.872 163.811 78.0427 164.409 78.384C165.006 78.7253 165.475 79.2107 165.817 79.84C166.169 80.4587 166.345 81.1893 166.345 82.032C166.345 82.8747 166.169 83.6107 165.817 84.24C165.465 84.8587 164.985 85.3387 164.377 85.68C163.779 86.0213 163.107 86.192 162.361 86.192ZM162.361 85.04C162.819 85.04 163.246 84.928 163.641 84.704C164.035 84.48 164.355 84.144 164.601 83.696C164.846 83.248 164.969 82.6933 164.969 82.032C164.969 81.3707 164.846 80.816 164.601 80.368C164.366 79.92 164.051 79.584 163.657 79.36C163.262 79.136 162.841 79.024 162.393 79.024C161.934 79.024 161.507 79.136 161.113 79.36C160.718 79.584 160.398 79.92 160.153 80.368C159.907 80.816 159.785 81.3707 159.785 82.032C159.785 82.6933 159.907 83.248 160.153 83.696C160.398 84.144 160.713 84.48 161.097 84.704C161.491 84.928 161.913 85.04 162.361 85.04ZM175.157 78.064V86H173.941L173.861 84.576C173.605 85.0773 173.237 85.472 172.757 85.76C172.277 86.048 171.733 86.192 171.125 86.192C170.187 86.192 169.435 85.9093 168.869 85.344C168.315 84.768 168.037 83.888 168.037 82.704V78.064H169.381V82.56C169.381 84.2133 170.064 85.04 171.429 85.04C172.112 85.04 172.677 84.7947 173.125 84.304C173.584 83.8027 173.813 83.0933 173.813 82.176V78.064H175.157ZM185.252 86.192C184.495 86.192 183.812 86.0213 183.204 85.68C182.607 85.328 182.132 84.8427 181.78 84.224C181.439 83.5947 181.268 82.864 181.268 82.032C181.268 81.2 181.439 80.4747 181.78 79.856C182.132 79.2267 182.607 78.7413 183.204 78.4C183.812 78.048 184.495 77.872 185.252 77.872C186.191 77.872 186.98 78.1173 187.62 78.608C188.271 79.0987 188.681 79.7547 188.852 80.576H187.476C187.369 80.0853 187.108 79.7067 186.692 79.44C186.276 79.1627 185.791 79.024 185.236 79.024C184.788 79.024 184.367 79.136 183.972 79.36C183.577 79.584 183.257 79.92 183.012 80.368C182.767 80.816 182.644 81.3707 182.644 82.032C182.644 82.6933 182.767 83.248 183.012 83.696C183.257 84.144 183.577 84.4853 183.972 84.72C184.367 84.944 184.788 85.056 185.236 85.056C185.791 85.056 186.276 84.9227 186.692 84.656C187.108 84.3787 187.369 83.9893 187.476 83.488H188.852C188.692 84.288 188.287 84.9387 187.636 85.44C186.985 85.9413 186.191 86.192 185.252 86.192ZM193.369 86.192C192.708 86.192 192.158 86.08 191.721 85.856C191.284 85.632 190.958 85.3333 190.745 84.96C190.532 84.5867 190.425 84.1813 190.425 83.744C190.425 82.9333 190.734 82.3093 191.353 81.872C191.972 81.4347 192.814 81.216 193.881 81.216H196.025V81.12C196.025 80.4267 195.844 79.904 195.481 79.552C195.118 79.1893 194.633 79.008 194.025 79.008C193.502 79.008 193.049 79.1413 192.665 79.408C192.292 79.664 192.057 80.0427 191.961 80.544H190.585C190.638 79.968 190.83 79.4827 191.161 79.088C191.502 78.6933 191.924 78.3947 192.425 78.192C192.926 77.9787 193.46 77.872 194.025 77.872C195.134 77.872 195.966 78.1707 196.521 78.768C197.086 79.3547 197.369 80.1387 197.369 81.12V86H196.169L196.089 84.576C195.865 85.024 195.534 85.408 195.097 85.728C194.67 86.0373 194.094 86.192 193.369 86.192ZM193.577 85.056C194.089 85.056 194.526 84.9227 194.889 84.656C195.262 84.3893 195.545 84.0427 195.737 83.616C195.929 83.1893 196.025 82.7413 196.025 82.272V82.256H193.993C193.204 82.256 192.644 82.3947 192.313 82.672C191.993 82.9387 191.833 83.2747 191.833 83.68C191.833 84.096 191.982 84.432 192.281 84.688C192.59 84.9333 193.022 85.056 193.577 85.056ZM199.385 86V78.064H200.601L200.681 79.488C200.937 78.9867 201.305 78.592 201.785 78.304C202.265 78.016 202.809 77.872 203.417 77.872C204.356 77.872 205.103 78.16 205.657 78.736C206.223 79.3013 206.505 80.176 206.505 81.36V86H205.161V81.504C205.161 79.8507 204.479 79.024 203.113 79.024C202.431 79.024 201.86 79.2747 201.401 79.776C200.953 80.2667 200.729 80.9707 200.729 81.888V86H199.385ZM219.72 78.064V86H218.504L218.424 84.576C218.168 85.0773 217.8 85.472 217.32 85.76C216.84 86.048 216.296 86.192 215.688 86.192C214.749 86.192 213.997 85.9093 213.432 85.344C212.877 84.768 212.6 83.888 212.6 82.704V78.064H213.944V82.56C213.944 84.2133 214.627 85.04 215.992 85.04C216.675 85.04 217.24 84.7947 217.688 84.304C218.147 83.8027 218.376 83.0933 218.376 82.176V78.064H219.72ZM224.972 86.192C224.023 86.192 223.233 85.952 222.604 85.472C221.975 84.992 221.607 84.3413 221.5 83.52H222.876C222.961 83.936 223.18 84.2987 223.532 84.608C223.895 84.9067 224.38 85.056 224.988 85.056C225.553 85.056 225.969 84.9387 226.236 84.704C226.503 84.4587 226.636 84.1707 226.636 83.84C226.636 83.36 226.46 83.04 226.108 82.88C225.767 82.72 225.281 82.576 224.652 82.448C224.225 82.3627 223.799 82.24 223.372 82.08C222.945 81.92 222.588 81.696 222.3 81.408C222.012 81.1093 221.868 80.72 221.868 80.24C221.868 79.5467 222.124 78.9813 222.636 78.544C223.159 78.096 223.863 77.872 224.748 77.872C225.591 77.872 226.279 78.0853 226.812 78.512C227.356 78.928 227.671 79.5253 227.756 80.304H226.428C226.375 79.8987 226.199 79.584 225.9 79.36C225.612 79.1253 225.223 79.008 224.732 79.008C224.252 79.008 223.879 79.1093 223.612 79.312C223.356 79.5147 223.228 79.7813 223.228 80.112C223.228 80.432 223.393 80.6827 223.724 80.864C224.065 81.0453 224.524 81.2 225.1 81.328C225.591 81.4347 226.055 81.568 226.492 81.728C226.94 81.8773 227.303 82.1067 227.58 82.416C227.868 82.7147 228.012 83.152 228.012 83.728C228.023 84.4427 227.751 85.0347 227.196 85.504C226.652 85.9627 225.911 86.192 224.972 86.192ZM233.5 86.192C232.743 86.192 232.071 86.0213 231.484 85.68C230.897 85.328 230.433 84.8427 230.092 84.224C229.761 83.6053 229.596 82.8747 229.596 82.032C229.596 81.2 229.761 80.4747 230.092 79.856C230.423 79.2267 230.881 78.7413 231.468 78.4C232.065 78.048 232.753 77.872 233.532 77.872C234.3 77.872 234.961 78.048 235.516 78.4C236.081 78.7413 236.513 79.1947 236.812 79.76C237.111 80.3253 237.26 80.9333 237.26 81.584C237.26 81.7013 237.255 81.8187 237.244 81.936C237.244 82.0533 237.244 82.1867 237.244 82.336H230.924C230.956 82.944 231.095 83.4507 231.34 83.856C231.596 84.2507 231.911 84.5493 232.284 84.752C232.668 84.9547 233.073 85.056 233.5 85.056C234.055 85.056 234.519 84.928 234.892 84.672C235.265 84.416 235.537 84.0693 235.708 83.632H237.036C236.823 84.368 236.412 84.9813 235.804 85.472C235.207 85.952 234.439 86.192 233.5 86.192ZM233.5 79.008C232.86 79.008 232.289 79.2053 231.788 79.6C231.297 79.984 231.015 80.5493 230.94 81.296H235.932C235.9 80.5813 235.655 80.0213 235.196 79.616C234.737 79.2107 234.172 79.008 233.5 79.008ZM244.092 76.304C243.825 76.304 243.601 76.2187 243.42 76.048C243.249 75.8667 243.164 75.6427 243.164 75.376C243.164 75.12 243.249 74.9067 243.42 74.736C243.601 74.5653 243.825 74.48 244.092 74.48C244.348 74.48 244.567 74.5653 244.748 74.736C244.929 74.9067 245.02 75.12 245.02 75.376C245.02 75.6427 244.929 75.8667 244.748 76.048C244.567 76.2187 244.348 76.304 244.092 76.304ZM243.42 86V78.064H244.764V86H243.42ZM250.24 86C249.515 86 248.944 85.824 248.528 85.472C248.112 85.12 247.904 84.4853 247.904 83.568V79.2H246.528V78.064H247.904L248.08 76.16H249.248V78.064H251.584V79.2H249.248V83.568C249.248 84.0693 249.349 84.4107 249.552 84.592C249.755 84.7627 250.112 84.848 250.624 84.848H251.456V86H250.24ZM260.166 86.192C259.505 86.192 258.955 86.08 258.518 85.856C258.081 85.632 257.755 85.3333 257.542 84.96C257.329 84.5867 257.222 84.1813 257.222 83.744C257.222 82.9333 257.531 82.3093 258.15 81.872C258.769 81.4347 259.611 81.216 260.678 81.216H262.822V81.12C262.822 80.4267 262.641 79.904 262.278 79.552C261.915 79.1893 261.43 79.008 260.822 79.008C260.299 79.008 259.846 79.1413 259.462 79.408C259.089 79.664 258.854 80.0427 258.758 80.544H257.382C257.435 79.968 257.627 79.4827 257.958 79.088C258.299 78.6933 258.721 78.3947 259.222 78.192C259.723 77.9787 260.257 77.872 260.822 77.872C261.931 77.872 262.763 78.1707 263.318 78.768C263.883 79.3547 264.166 80.1387 264.166 81.12V86H262.966L262.886 84.576C262.662 85.024 262.331 85.408 261.894 85.728C261.467 86.0373 260.891 86.192 260.166 86.192ZM260.374 85.056C260.886 85.056 261.323 84.9227 261.686 84.656C262.059 84.3893 262.342 84.0427 262.534 83.616C262.726 83.1893 262.822 82.7413 262.822 82.272V82.256H260.79C260.001 82.256 259.441 82.3947 259.11 82.672C258.79 82.9387 258.63 83.2747 258.63 83.68C258.63 84.096 258.779 84.432 259.078 84.688C259.387 84.9333 259.819 85.056 260.374 85.056ZM269.222 86.192C268.273 86.192 267.483 85.952 266.854 85.472C266.225 84.992 265.857 84.3413 265.75 83.52H267.126C267.211 83.936 267.43 84.2987 267.782 84.608C268.145 84.9067 268.63 85.056 269.238 85.056C269.803 85.056 270.219 84.9387 270.486 84.704C270.753 84.4587 270.886 84.1707 270.886 83.84C270.886 83.36 270.71 83.04 270.358 82.88C270.017 82.72 269.531 82.576 268.902 82.448C268.475 82.3627 268.049 82.24 267.622 82.08C267.195 81.92 266.838 81.696 266.55 81.408C266.262 81.1093 266.118 80.72 266.118 80.24C266.118 79.5467 266.374 78.9813 266.886 78.544C267.409 78.096 268.113 77.872 268.998 77.872C269.841 77.872 270.529 78.0853 271.062 78.512C271.606 78.928 271.921 79.5253 272.006 80.304H270.678C270.625 79.8987 270.449 79.584 270.15 79.36C269.862 79.1253 269.473 79.008 268.982 79.008C268.502 79.008 268.129 79.1093 267.862 79.312C267.606 79.5147 267.478 79.7813 267.478 80.112C267.478 80.432 267.643 80.6827 267.974 80.864C268.315 81.0453 268.774 81.2 269.35 81.328C269.841 81.4347 270.305 81.568 270.742 81.728C271.19 81.8773 271.553 82.1067 271.83 82.416C272.118 82.7147 272.262 83.152 272.262 83.728C272.273 84.4427 272.001 85.0347 271.446 85.504C270.902 85.9627 270.161 86.192 269.222 86.192ZM279.281 89.52L281.249 85.232H280.785L277.633 78.064H279.089L281.713 84.24L284.497 78.064H285.889L280.689 89.52H279.281ZM290.173 86.192C289.426 86.192 288.754 86.0213 288.157 85.68C287.56 85.3387 287.085 84.8587 286.733 84.24C286.392 83.6107 286.221 82.8747 286.221 82.032C286.221 81.1893 286.397 80.4587 286.749 79.84C287.101 79.2107 287.576 78.7253 288.173 78.384C288.781 78.0427 289.458 77.872 290.205 77.872C290.952 77.872 291.624 78.0427 292.221 78.384C292.818 78.7253 293.288 79.2107 293.629 79.84C293.981 80.4587 294.157 81.1893 294.157 82.032C294.157 82.8747 293.981 83.6107 293.629 84.24C293.277 84.8587 292.797 85.3387 292.189 85.68C291.592 86.0213 290.92 86.192 290.173 86.192ZM290.173 85.04C290.632 85.04 291.058 84.928 291.453 84.704C291.848 84.48 292.168 84.144 292.413 83.696C292.658 83.248 292.781 82.6933 292.781 82.032C292.781 81.3707 292.658 80.816 292.413 80.368C292.178 79.92 291.864 79.584 291.469 79.36C291.074 79.136 290.653 79.024 290.205 79.024C289.746 79.024 289.32 79.136 288.925 79.36C288.53 79.584 288.21 79.92 287.965 80.368C287.72 80.816 287.597 81.3707 287.597 82.032C287.597 82.6933 287.72 83.248 287.965 83.696C288.21 84.144 288.525 84.48 288.909 84.704C289.304 84.928 289.725 85.04 290.173 85.04ZM302.97 78.064V86H301.754L301.674 84.576C301.418 85.0773 301.05 85.472 300.57 85.76C300.09 86.048 299.546 86.192 298.938 86.192C297.999 86.192 297.247 85.9093 296.682 85.344C296.127 84.768 295.85 83.888 295.85 82.704V78.064H297.194V82.56C297.194 84.2133 297.877 85.04 299.242 85.04C299.925 85.04 300.49 84.7947 300.938 84.304C301.397 83.8027 301.626 83.0933 301.626 82.176V78.064H302.97ZM311.017 86L308.697 78.064H310.041L311.721 84.288L313.577 78.064H315.097L316.969 84.288L318.633 78.064H319.993L317.673 86H316.297L314.345 79.456L312.393 86H311.017ZM322.295 76.304C322.028 76.304 321.804 76.2187 321.623 76.048C321.452 75.8667 321.367 75.6427 321.367 75.376C321.367 75.12 321.452 74.9067 321.623 74.736C321.804 74.5653 322.028 74.48 322.295 74.48C322.551 74.48 322.77 74.5653 322.951 74.736C323.132 74.9067 323.223 75.12 323.223 75.376C323.223 75.6427 323.132 75.8667 322.951 76.048C322.77 76.2187 322.551 76.304 322.295 76.304ZM321.623 86V78.064H322.967V86H321.623ZM328.347 86.192C327.398 86.192 326.608 85.952 325.979 85.472C325.35 84.992 324.982 84.3413 324.875 83.52H326.251C326.336 83.936 326.555 84.2987 326.907 84.608C327.27 84.9067 327.755 85.056 328.363 85.056C328.928 85.056 329.344 84.9387 329.611 84.704C329.878 84.4587 330.011 84.1707 330.011 83.84C330.011 83.36 329.835 83.04 329.483 82.88C329.142 82.72 328.656 82.576 328.027 82.448C327.6 82.3627 327.174 82.24 326.747 82.08C326.32 81.92 325.963 81.696 325.675 81.408C325.387 81.1093 325.243 80.72 325.243 80.24C325.243 79.5467 325.499 78.9813 326.011 78.544C326.534 78.096 327.238 77.872 328.123 77.872C328.966 77.872 329.654 78.0853 330.187 78.512C330.731 78.928 331.046 79.5253 331.131 80.304H329.803C329.75 79.8987 329.574 79.584 329.275 79.36C328.987 79.1253 328.598 79.008 328.107 79.008C327.627 79.008 327.254 79.1093 326.987 79.312C326.731 79.5147 326.603 79.7813 326.603 80.112C326.603 80.432 326.768 80.6827 327.099 80.864C327.44 81.0453 327.899 81.2 328.475 81.328C328.966 81.4347 329.43 81.568 329.867 81.728C330.315 81.8773 330.678 82.1067 330.955 82.416C331.243 82.7147 331.387 83.152 331.387 83.728C331.398 84.4427 331.126 85.0347 330.571 85.504C330.027 85.9627 329.286 86.192 328.347 86.192ZM333.307 86V74.48H334.651V79.424C334.918 78.9333 335.296 78.5547 335.787 78.288C336.278 78.0107 336.811 77.872 337.387 77.872C338.304 77.872 339.04 78.16 339.595 78.736C340.15 79.3013 340.427 80.176 340.427 81.36V86H339.099V81.504C339.099 79.8507 338.432 79.024 337.099 79.024C336.406 79.024 335.824 79.2747 335.355 79.776C334.886 80.2667 334.651 80.9707 334.651 81.888V86H333.307ZM342.927 86.08C342.661 86.08 342.437 85.9947 342.255 85.824C342.085 85.6427 341.999 85.424 341.999 85.168C341.999 84.912 342.085 84.6987 342.255 84.528C342.437 84.3467 342.661 84.256 342.927 84.256C343.183 84.256 343.397 84.3467 343.567 84.528C343.749 84.6987 343.839 84.912 343.839 85.168C343.839 85.424 343.749 85.6427 343.567 85.824C343.397 85.9947 343.183 86.08 342.927 86.08Z" fill="#383A47"/>
<circle opacity="0.2" cx="30" cy="32" r="30" fill="#4DA44E"/>
<path fill-rule="evenodd" clip-rule="evenodd" d="M31.4671 24.8962C32.0359 24.8962 32.4152 24.517 32.4152 23.9481C32.4152 23.3792 32.0359 23 31.4671 23H27.6747C27.1058 23 26.7266 23.3792 26.7266 23.9481C26.7266 24.517 27.1058 24.8962 27.6747 24.8962H31.4671ZM36.3972 27.9301C36.7765 27.5509 36.7765 26.982 36.3972 26.6028C36.018 26.2236 35.4491 26.2236 35.0699 26.6028L34.2166 27.4561C31.4671 25.2754 27.6747 25.2754 24.9252 27.4561L24.0719 26.6028C23.6926 26.2236 23.1238 26.2236 22.7445 26.6028C22.3653 26.982 22.3653 27.5509 22.7445 27.9301L23.5978 28.7834C21.0379 32.1018 21.6068 36.8423 24.9252 39.4022C28.2435 41.9621 32.984 41.3932 35.5439 38.0748C37.7246 35.3253 37.7246 31.5329 35.5439 28.7834L36.3972 27.9301ZM29.5709 35.3253C28.528 35.3253 27.6747 34.472 27.6747 33.4291C27.6747 32.7655 28.0539 32.1018 28.6228 31.8174V29.6367C28.6228 29.0679 29.002 28.6886 29.5709 28.6886C30.1397 28.6886 30.519 29.0679 30.519 29.6367V31.8174C31.4671 32.2914 31.7515 33.4291 31.1826 34.3772C30.8034 34.9461 30.2345 35.3253 29.5709 35.3253Z" fill="#4DA44E"/>
</svg>
